<?xml version="1.0" encoding="utf-8"?>
<svg viewBox="58.955 13.45 554.112 562.951" style="enable-background:new 0 0 612 792;" xmlns="http://www.w3.org/2000/svg">
  <defs>
    <style type="text/css">
	.Arqueado:_x0020_verde{fill:url(#SVGID_1_);stroke:#FFFFFF;stroke-width:0.25;stroke-miterlimit:1;}
	.st0{fill:#5BC2E7;}
	.st1{fill:#1D1D1B;}
	.st2{fill:#FFFFFF;}
</style>
  </defs>
  <g style="" transform="matrix(1.4334959983825684, 0, 0, 1.4334959983825684, -100.15735626220703, 5.804137229919434)">
    <g>
      <g>
        <g>
          <g>
            <path class="st0" d="M403,141.8c-0.5-1.5,5.3-12.4,5.3-12.4l-15.8-31.7c0.6-0.4,1.2-0.9,1.7-1.3C351.8,25.6,314.1,21,314.1,21&#10;&#9;&#9;&#9;&#9;&#9;&#9;S205.5,8.6,174.7,118c-5.4,44.7,16.2,78.5,16.2,78.5s-30.8-12.3-33.1-0.8c-2.3,11.6,34.6,20.8,34.6,20.8l-30.8,34.6l9.2,11.8&#10;&#9;&#9;&#9;&#9;&#9;&#9;l29.7-45c0,0,6.1,0.9,18,1.7c-0.8,5.4,2.3,10.8,2.3,10.8s2.2-1.8,6.1-5l3.2,9.6l-27.2,55.8l35.1-53.9l-3.8-17.4&#10;&#9;&#9;&#9;&#9;&#9;&#9;c27.1-21.8,90.5-72.4,149.9-115.9l15.7,25.9c0,0-2.7,10.9-3.3,12.4c3.1,12.1,33.3,44.7,33.3,44.7l-19.7,9.5L390.6,278&#10;&#9;&#9;&#9;&#9;&#9;&#9;l-80.9-23.9l-18.5-16.2l16.2,19.2l33,10.8l52.5,16.9l21.6-85.1l23.9-13C438.4,186.8,406.4,155.4,403,141.8z M165.5,198.9&#10;&#9;&#9;&#9;&#9;&#9;&#9;c13.8-8.5,31.2,11.1,31.2,11.1S179.6,208.8,165.5,198.9z"/>
          </g>
        </g>
      </g>
    </g>
  </g>
  <g style="" transform="matrix(1.4334959983825684, 0, 0, 1.4334959983825684, -100.15735626220703, 5.804137229919434)">
    <g>
      <g>
        <g>
          <g>
            <path class="st0" d="M164.9,305.6h11.5l-5.7,21.3h10.4l5.6-21.3h11.4L183,363.7h-11.4l7.5-28.7h-10.4l-7.4,28.7h-11.5&#10;&#9;&#9;&#9;&#9;&#9;&#9;l12.2-46.9L164.9,305.6z"/>
          </g>
        </g>
      </g>
      <g>
        <g>
          <g>
            <path class="st0" d="M202.3,351.5c0.4,2.2,1.1,3.6,2.2,4.1c0.3,0.2,0.7,0.4,1.2,0.6c3.7,0.1,6.9-1.4,9.7-4.2l-2.7,10.4&#10;&#9;&#9;&#9;&#9;&#9;&#9;c-2.2,1.4-4.5,2.1-7,2.1c-2.2,0-4.3-0.5-6.5-1.6c-4.7-2.3-7.1-6.8-7.1-13.3c0-3.5,0.8-7,2.5-10.4c1.8-3.7,4.3-6.7,7.5-9&#10;&#9;&#9;&#9;&#9;&#9;&#9;c3.2-2.2,6.4-3.4,9.7-3.4c1.8,0,3.5,0.4,5,1.1c4.1,1.4,6.1,4.5,6.1,9.3c0,0.9-0.1,1.7-0.2,2.4c-0.7,3.3-2.7,6.1-5.9,8.6&#10;&#9;&#9;&#9;&#9;&#9;&#9;c-3.2,2.5-6.7,3.7-10.5,3.7C204.9,352,203.6,351.8,202.3,351.5z M202.9,344.8c1,0.2,2,0.3,2.9,0.3c2.6,0,4.7-0.6,6.3-1.9&#10;&#9;&#9;&#9;&#9;&#9;&#9;c1.7-1.5,2.5-3,2.5-4.5c0-0.8-0.3-1.6-0.9-2.4c-0.6-0.8-1.3-1.2-2.2-1.2c-1.8,0-3.6,1.2-5.5,3.6&#10;&#9;&#9;&#9;&#9;&#9;&#9;C204.6,340.6,203.5,342.7,202.9,344.8z"/>
          </g>
        </g>
      </g>
      <g>
        <g>
          <g>
            <path class="st0" d="M228.7,363.6c-4.2-1.8-6.3-6-6.3-12.5c0-3.6,0.8-7.2,2.3-10.9c1.7-4,4-7.3,7-9.9c2.9-2.6,5.9-3.8,8.8-3.8&#10;&#9;&#9;&#9;&#9;&#9;&#9;c2.9,0,5.2,1.2,6.9,3.6l0.9-3.2h10.4l-6.7,26c-0.1,0.4-0.2,0.7-0.2,1c0,1,0.6,1.5,1.8,1.5c0.7,0,1.4-0.1,2.2-0.3l-1.9,6.7&#10;&#9;&#9;&#9;&#9;&#9;&#9;c-2.7,1.8-5.2,2.7-7.4,2.7c-2.6,0-4.8-1.2-6.5-3.5c-2.7,2-5.3,3.1-8,3.1C230.8,364.2,229.7,364,228.7,363.6z M241.6,334.8&#10;&#9;&#9;&#9;&#9;&#9;&#9;c-1.2,0-2.6,0.8-4,2.3c-1.4,1.6-2.6,3.6-3.5,6.1c-0.9,2.3-1.3,4.6-1.3,6.8c0,3.5,0.9,5.2,2.7,5.2c1.2,0,2.5-0.8,3.9-2.5&#10;&#9;&#9;&#9;&#9;&#9;&#9;c1.5-1.7,2.6-3.8,3.6-6.4c0.9-2.3,1.4-4.5,1.4-6.6C244.4,336.5,243.5,334.8,241.6,334.8z"/>
          </g>
        </g>
      </g>
      <g>
        <g>
          <g>
            <path class="st0" d="M268.4,363.8h-10.6l14.4-55.1h10.7L268.4,363.8z"/>
          </g>
        </g>
      </g>
      <g>
        <g>
          <g>
            <path class="st0" d="M288.3,363.7h-10.7l7.5-28.6h-4.9l2.1-8h4.9l4.1-15.9H302l-4.1,15.9h6.8l-2.2,8h-6.7L288.3,363.7z"/>
          </g>
        </g>
      </g>
      <g>
        <g>
          <g>
            <path class="st0" d="M317.6,363.8l6.4-24.8c0.1-0.3,0.1-0.5,0.1-0.8c0-0.9-0.4-1.6-1.1-2.1c-0.4-0.3-0.8-0.4-1.3-0.4&#10;&#9;&#9;&#9;&#9;&#9;&#9;c-0.9,0-1.9,0.4-3,1.2c-1.2,1-1.9,1.7-2.2,2c-0.8,0.7-1.4,1.5-1.8,2.4l-5.9,22.3H298l14.4-54.9h10.8l-5.4,20.6&#10;&#9;&#9;&#9;&#9;&#9;&#9;c2.8-1.7,5.6-2.5,8.3-2.5c1,0,1.8,0.1,2.5,0.3c4.2,1.9,6.2,5.1,6.2,9.5c0,0.8-0.1,1.6-0.2,2.2l-6.4,24.8L317.6,363.8z"/>
          </g>
        </g>
      </g>
      <g>
        <g>
          <g>
            <path class="st0" d="M352.8,313.6l1.9-8.1c0,0,22.4,0.1,38.2,0.1l-2.3,8h-11.9l-13.2,50.1h-11.4l13.1-50.1H352.8z"/>
          </g>
        </g>
      </g>
      <g>
        <g>
          <g>
            <path class="st0" d="M385.8,351.5c0.4,2.2,1.1,3.6,2.2,4.1c0.3,0.2,0.7,0.4,1.2,0.6c3.7,0.1,6.9-1.4,9.7-4.2l-2.7,10.4&#10;&#9;&#9;&#9;&#9;&#9;&#9;c-2.2,1.4-4.5,2.1-7,2.1c-2.2,0-4.3-0.5-6.5-1.6c-4.7-2.3-7.1-6.8-7.1-13.3c0-3.5,0.8-7,2.5-10.4c1.8-3.7,4.3-6.7,7.5-9&#10;&#9;&#9;&#9;&#9;&#9;&#9;c3.2-2.2,6.4-3.4,9.7-3.4c1.8,0,3.5,0.4,5,1.1c4.1,1.4,6.1,4.5,6.1,9.3c0,0.9-0.1,1.7-0.2,2.4c-0.7,3.3-2.7,6.1-5.9,8.6&#10;&#9;&#9;&#9;&#9;&#9;&#9;c-3.2,2.5-6.7,3.7-10.5,3.7C388.4,352,387.1,351.8,385.8,351.5z M386.4,344.8c1,0.2,2,0.3,2.9,0.3c2.6,0,4.7-0.6,6.3-1.9&#10;&#9;&#9;&#9;&#9;&#9;&#9;c1.7-1.5,2.6-3,2.6-4.5c0-0.8-0.3-1.6-0.9-2.4c-0.6-0.8-1.3-1.2-2.2-1.2c-1.8,0-3.6,1.2-5.5,3.6&#10;&#9;&#9;&#9;&#9;&#9;&#9;C388.1,340.6,387.1,342.7,386.4,344.8z"/>
          </g>
        </g>
      </g>
      <g>
        <g>
          <g>
            <path class="st0" d="M412.6,363.7h-11.8l17.4-18.5l-7.7-18.2h10.7l4.4,10.5l9.9-10.5h11.7l-18,19l7.5,17.7H426l-4.1-9.8&#10;&#9;&#9;&#9;&#9;&#9;&#9;L412.6,363.7z"/>
          </g>
        </g>
      </g>
    </g>
    <g>
      <g>
        <g>
          <g>
            <path class="st0" d="M467,315c0,4.5-3.6,8.1-8.1,8.1c-4.5,0-8.1-3.6-8.1-8.1c0-4.5,3.6-8.1,8.1-8.1&#10;&#9;&#9;&#9;&#9;&#9;&#9;C463.3,306.9,467,310.5,467,315z M458.9,305.3c-5.3,0-9.6,4.3-9.6,9.6c0,5.3,4.3,9.6,9.6,9.6c5.3,0,9.7-4.3,9.7-9.6&#10;&#9;&#9;&#9;&#9;&#9;&#9;C468.5,309.7,464.2,305.3,458.9,305.3z"/>
          </g>
        </g>
      </g>
      <g>
        <g>
          <g>
            <path class="st0" d="M454.4,320.4V309h5c1,0,1.8,0.1,2.3,0.3c0.5,0.2,0.9,0.6,1.3,1.1c0.3,0.5,0.5,1.1,0.5,1.7&#10;&#9;&#9;&#9;&#9;&#9;&#9;c0,0.8-0.3,1.5-0.8,2c-0.5,0.6-1.3,0.9-2.4,1.1c0.4,0.2,0.7,0.4,0.9,0.6c0.4,0.4,0.9,0.9,1.2,1.5l2,3.1h-1.9L461,318&#10;&#9;&#9;&#9;&#9;&#9;&#9;c-0.4-0.7-0.8-1.2-1.1-1.6c-0.3-0.4-0.5-0.6-0.8-0.8c-0.2-0.1-0.5-0.2-0.7-0.3c-0.2,0-0.4-0.1-0.8-0.1h-1.7v5.1H454.4z&#10;&#9;&#9;&#9;&#9;&#9;&#9; M455.9,314h3.2c0.7,0,1.2-0.1,1.6-0.2c0.4-0.1,0.7-0.4,0.9-0.7c0.2-0.3,0.3-0.7,0.3-1c0-0.5-0.2-1-0.6-1.3&#10;&#9;&#9;&#9;&#9;&#9;&#9;c-0.4-0.3-1-0.5-1.8-0.5h-3.6V314z"/>
          </g>
        </g>
      </g>
    </g>
  </g>
</svg>