<?xml version="1.0" encoding="utf-8"?>
<svg viewBox="58.955 13.45 554.112 562.951" style="enable-background:new 0 0 612 792;" xmlns="http://www.w3.org/2000/svg">
  <defs>
    <style type="text/css">
	.Arqueado:_x0020_verde{fill:url(#SVGID_1_);stroke:#FFFFFF;stroke-width:0.25;stroke-miterlimit:1;}
	.st0{fill:#5BC2E7;}
	.st1{fill:#1D1D1B;}
	.st2{fill:#FFFFFF;}
</style>
  </defs>
  <g style="" transform="matrix(1.7744660377502441, 0, 0, 1.7744660377502441, -196.55943298339844, -0.7046629786491394)">
    <g>
      <g>
        <g>
          <g>
            <path class="st0" d="M403,141.8c-0.5-1.5,5.3-12.4,5.3-12.4l-15.8-31.7c0.6-0.4,1.2-0.9,1.7-1.3C351.8,25.6,314.1,21,314.1,21&#10;&#9;&#9;&#9;&#9;&#9;&#9;S205.5,8.6,174.7,118c-5.4,44.7,16.2,78.5,16.2,78.5s-30.8-12.3-33.1-0.8c-2.3,11.6,34.6,20.8,34.6,20.8l-30.8,34.6l9.2,11.8&#10;&#9;&#9;&#9;&#9;&#9;&#9;l29.7-45c0,0,6.1,0.9,18,1.7c-0.8,5.4,2.3,10.8,2.3,10.8s2.2-1.8,6.1-5l3.2,9.6l-27.2,55.8l35.1-53.9l-3.8-17.4&#10;&#9;&#9;&#9;&#9;&#9;&#9;c27.1-21.8,90.5-72.4,149.9-115.9l15.7,25.9c0,0-2.7,10.9-3.3,12.4c3.1,12.1,33.3,44.7,33.3,44.7l-19.7,9.5L390.6,278&#10;&#9;&#9;&#9;&#9;&#9;&#9;l-80.9-23.9l-18.5-16.2l16.2,19.2l33,10.8l52.5,16.9l21.6-85.1l23.9-13C438.4,186.8,406.4,155.4,403,141.8z M165.5,198.9&#10;&#9;&#9;&#9;&#9;&#9;&#9;c13.8-8.5,31.2,11.1,31.2,11.1S179.6,208.8,165.5,198.9z"/>
          </g>
        </g>
      </g>
    </g>
  </g>
</svg>