<svg id="Capa_1" data-name="Capa 1" xmlns="http://www.w3.org/2000/svg" viewBox="0 0 1080 1080"><path d="M360.5,617.44c-32.58-.39-70.07-3.4-106.43-14.65-15.49-4.8-30.5-10.75-42.72-22.07-7.89-7.3-12.3-16-11.46-26.9.33-4.17-.88-5.87-5.2-7.18-16-4.86-25.6-16.54-31.29-31.81-5.76-15.48-6.53-31.6-5.75-47.83A833.29,833.29,0,0,1,168,367.2c4.75-27.89,10.95-55.43,21.45-81.83,1.66-4.17,3.67-8.2,5.56-12.28,4.89-10.57,9.3-21.38,14.79-31.63,12-22.4,31.1-37.5,53.28-48.82,9.47-4.84,19.52-8.6,29.52-12.31,4-1.49,5.69-3,5.63-7.63-.24-16.59,6.05-30.38,19.24-40.72,7.72-6,16.57-9.76,26.37-10,14.47-.39,29-.54,43.45,0,24.63.84,44.6,21.72,45.75,47.18.42,9.31.43,9.27,9.33,12.34,23.69,8.19,45.25,19.93,63,38a96.87,96.87,0,0,1,23.09,37.8c1.84,5.54,5.08,10.6,7.67,15.89,11.45,23.43,18.12,48.38,23.27,73.79,8.09,39.91,12.35,80.29,14.18,120.93.83,18.27-.36,36.33-8.36,53.21-6.13,12.94-15.75,22.11-29.84,26-2.23.61-3.88,1.33-3.65,4.15,1.5,18.84-9.47,30-24.17,38.68-19.32,11.4-40.75,16.61-62.51,20.71C418.84,615.53,392.36,617.31,360.5,617.44ZM511.28,425.53h-5.95q-54.19,0-108.4.05-86.05,0-172.1-.14c-3.68,0-4.74.93-4.72,4.69.14,40.49.32,81-.09,121.48-.09,8.54,3.29,14.37,10.07,17.93,9.9,5.2,20,10.39,30.61,13.79,28.17,9,57.35,12.28,86.83,13.23,41.66,1.34,82.93-1,123.13-13.11,11.87-3.57,23.41-8,33.35-15.76,5-3.9,7.41-8.53,7.38-15.14-.23-39.08-.11-78.17-.11-117.26Zm-145.8-20.39v.06c33,0,66.07-.08,99.11.09,4.26,0,5.45-1.08,5.43-5.38-.18-35,0-70-.25-105a45,45,0,0,0-3.32-16.76c-8.17-19.35-24.55-29.85-43-37.44-28.23-11.6-57.56-13.62-87.38-8.22-21.17,3.83-40.92,11.31-57.15,26.11-10.24,9.32-17.19,20.41-17.21,34.81-.06,36,0,72-.14,108,0,3.45,1.59,3.82,4.39,3.82Q315.71,405.09,365.48,405.14Zm-145.34,0c5.74,0,10.65,0,15.55,0,5.48,0,5.53,0,5.53-5.51q0-52.33,0-104.65a64,64,0,0,1,13.16-39.68c12-15.9,28-26.29,46.13-33.62,31.35-12.66,63.79-15.14,97-9.51C423.36,216.59,447,226,466.63,244c13.41,12.29,22.49,27.08,23.17,45.77.54,14.89.42,29.8.46,44.71q.09,33.33-.06,66.67c0,3.17,1,4.24,4.14,4.06,3.79-.22,7.59,0,11.39,0,5.47,0,5.49,0,5.49-5.53,0-38.82-.1-77.64.11-116.47.1-18.09-6.16-33.48-18.14-46.77-16.41-18.22-37.33-29.25-60.2-36.63-37.76-12.19-76.22-13.53-115-5.3-26.79,5.69-51.56,16-72.27,34.44-16.62,14.83-26.11,32.75-25.71,55.85.6,34.87.12,69.76.1,104.64Zm-20.56-82.6-.9-.19c-1.17,4.53-2.43,9.05-3.51,13.61a630.91,630.91,0,0,0-15,99.52c-1.36,18.63-3.47,37.27-1.38,56,1.18,10.6,3.63,20.89,11.22,29,2.42,2.58,5.72,4.32,8.63,6.45l.93-1Zm333.58,1.36-1.16.16v202.6c2.18-1.15,3.83-1.83,5.27-2.8,6.67-4.49,10.09-11.2,12.29-18.62a101.91,101.91,0,0,0,3.76-33.81c-1.83-39.94-5.52-79.68-13.54-118.91C537.82,343,535.38,333.47,533.16,323.93ZM412.65,173.38c0-1.91.08-3,0-4.1-1.32-16-12.78-26.89-28.91-27.15-12.38-.2-24.76-.15-37.13.05A28.34,28.34,0,0,0,319.4,164c-.68,2.86-.56,5.91-.85,9.38A256.84,256.84,0,0,1,412.65,173.38Z"/><path d="M457.71,469.13c0,7.79.22,14.82-.06,21.83-.31,7.57-7.2,12.14-13.85,9.42-4.63-1.89-6.33-5.76-6.43-10.44-.12-5.48-.21-11,0-16.44.14-3.28-.87-4.37-4.23-4.36-22.49.1-45,0-67.48,0q-56.08,0-112.17-.05c-4.78,0-9-1.22-11.24-5.91-3.11-6.41,1.13-13.59,8.76-14.27,5.31-.47,10.68-.21,16-.21l186,0c8.57,0,17.15,0,25.72.15,5.79.1,9.49,2.68,10.75,7.1,1.83,6.37-1.93,12.25-8.93,12.95-5.71.57-11.51.24-17.27.29C461.65,469.14,460,469.13,457.71,469.13Z"/><path d="M730.69,704.25c-.3,1.09-.6,2.17-.91,3.25q-4,13.49-8,27c-5.79,19.68-5.77,19.14,15,19.71,46.78,1.3,89.08,15.1,124,47.47s41.92,79.51,16.47,114.75C851.1,952.56,814,963.28,772,956.46c-37.58-6.1-63.46-28.36-76.66-64.67-13.13-36.11-8.77-72.36-.85-108.58,1.71-7.84,1.54-13.5-8.43-10.86-36.82,9.75-73.55,19.9-110.3,29.92-6.86,1.86-8.52,6.49-9.11,13.4-2.35,27-28.86,44.74-53.2,36-16.37-5.87-25.62-17.93-27.71-35-1.93-15.8,7.7-32.91,22-40,15.7-7.78,30.68-5.36,44.22,5,5.54,4.24,9.85,8.23,17.85,5.23a591,591,0,0,1,122.58-31.88c4.36-.63,10.49-5.35,11.64-9.36q12.33-43.26,22.63-87.08c2.42-10.3,1.71-21-7.25-29.09-11.39-10.25-13.18-22.83-11.77-37.73,2.07-21.85,4.61-44.33,1.7-65.83-4.68-34.59-8.48-68.85-5.33-103.78,3.51-38.77,13.37-76,26.3-112.46,3.48-9.8,10.83-16.63,22-16,17.34.91,34.64,2.61,52,4a9,9,0,0,1,3.25.77c8.75,4.47,5.19,11.44,2.94,17.54-2.16,5.88-6.81,10-13,5.67-5.13-3.61-9-9.06-13.46-13.6-2-2.05-4-4.84-6.48-5.61-26.69-8.18-39.77-6.81-45.8,19.23-.41,1.8-1.51,3.43-2.11,5.2-16.46,48.76-26,98.79-21.11,150.22,2.81,29.51,7.47,59.37,16,87.65,9.48,31.42,45.46,39.78,70.29,20,10.06-8,18.59-18,27.51-27.46,50-52.64,78.77-116,93.24-186.35,4.57-22.24-.17-29.43-22.26-35.88-5.18-1.52-11.28-.62-16.83.14-4.88.67-9.65,4-14.32,3.72-4.07-.25-11-3.61-11.26-6.15-.54-5.43,1.41-11.87,4.41-16.56,1.24-1.92,8.39-1.69,11.92-.21,12.2,5.14,24.06,11.1,35.92,17,18.38,9.19,22.6,18.37,17.6,38.26q-5.07,20.18-10.73,40.21C897,457,876.73,499.05,846.81,535.8c-21.56,26.47-41.57,53.5-55.21,85.25-3.59,8.36-13.83,16.43-22.74,19.33C755.09,644.87,747,653,742.75,665.6s-7.43,25.93-11.08,38.93Zm-10.44,65.31c-3.52-.11-9.48,4-10.43,7.3-9.66,33.44-15.29,67.39-5.54,101.8s31.56,58.05,67.59,64.14c38.1,6.45,71.51-3.17,94.62-36.71,19.72-28.63,12.6-67.29-16.63-94-18.8-17.18-41.79-29.62-67.24-38.84C761.84,771.89,741.06,770.16,720.25,769.56ZM725.85,579c-7.65,13.64-7.58,29.37-1,37.63,7.14,9,28.63,15.89,40.08,12.14,14.27-4.68,18.45-17,22.68-32.68C762,603.05,741.94,597.08,725.85,579ZM517.54,831.42c-9.34-4.33-14.26-12.56-11.75-21.87C511.6,788,528.17,791,544.88,796.66c-3.38-12.24-14.58-16.18-28.33-11.58-15.72,5.25-23.76,23.53-17.31,39.3s24.48,22.34,40.18,14.64c11.76-5.77,17.07-17.29,11.64-26.61C535.7,833.67,529.67,837,517.54,831.42Z"/></svg>