<svg id="Capa_1" data-name="Capa 1" xmlns="http://www.w3.org/2000/svg" viewBox="0 0 1080 1080"><defs><style>.cls-1{fill:none;stroke:#000;stroke-miterlimit:10;stroke-width:18.67px;}</style></defs><path d="M831.76,495.37q48.45-68.7,97-137.36c7.48-10.57,7-13.68-4.27-20.69C882.63,311.23,840.93,285,798.9,259.25c-14.5-8.88-29.11-18.33-44.91-24.18-36.52-13.53-73.74-25.2-110.83-37.13a32,32,0,0,0-17.57-.62c-57.26,14.43-114.5,15.7-172.11,1.94-6.82-1.62-15.09-.68-21.85,1.57q-50.92,16.95-101.31,35.46a182.3,182.3,0,0,0-34.76,17.22c-46.74,29.67-93.1,59.92-139.62,89.93-11.69,7.54-12.33,10.59-4.2,21.69q49.38,67.33,98.77,134.65c9,12.24,10.6,12.54,22.93,4.21,11.32-7.66,22.55-15.45,35.62-24.41.22,7,.5,11.26.47,15.5q-1.38,185.43-2.82,370.86c-.12,16.58,1.08,17.81,17.24,17.67q180-1.51,360.05-3c9.81-.08,19.67.06,29.69.16a1.18,1.18,0,0,1,.9-.63,1.23,1.23,0,0,1,1.57-1.25,31.47,31.47,0,0,0,10.9.73c3.52-.25,7-.48,10.55-.56a100.78,100.78,0,0,1,16.27,1.06c33.61.61,28,.36,27.66-31.91-.2-16.7-.52-33.41-1.48-50.09a137.74,137.74,0,0,1,.63-23.3c-.73-6.39-1.25-12.81-1.83-19.21-.67-7.4-.89-14.84-1.16-22.27-.27-7.19-1.16-14.64.44-21.74a1.07,1.07,0,0,1,.1-.22c-1.94-77.84-3.88-155.73-5.88-236.24,14.39,9.49,25.92,17.13,37.49,24.73C821.59,507.57,823.46,507.13,831.76,495.37ZM617.68,215.52c-7.65,13.82-13.33,24.58-19.6,35v0a38.23,38.23,0,0,1-4.46,8.18c-2,3-3.71,6-5.42,9.16l-3.67,6.63h.32l-6.33,11.14c-.52,1-1,2-1.54,3a1.23,1.23,0,0,1-.45.5L540,353.46c-12.41-21.1-24-40.81-35.19-59.86a1.26,1.26,0,0,1-.62-.68c-.22-.55-.49-1.06-.72-1.59l-3.58-6.1a1.24,1.24,0,0,1-1.14-.88c-.31-.89-.63-1.78-.95-2.67-1-1.68-2-3.36-3-5H495a101,101,0,0,1-5.72-10.78,141.45,141.45,0,0,0-8.37-13.36,1.11,1.11,0,0,1-.22-.73l0,0c-.12-.15-.29-.27-.39-.42-6.66-10.18-12.53-20.88-20.59-34.62C513.4,229.41,564.1,227.92,617.68,215.52Zm130.61,220c8.36,24.23,8,49.25,8.6,74.23q4.08,171.07,8,342.15c.08,3.49-.17,7-.29,11.61l-441.2,3.76c.13-33.64.16-65.74.39-97.85.72-98.57,1.25-197.15,2.59-295.72.17-12,5.45-23.94,7-36.08.55-4.3-3-9.12-4.67-13.71-3.61,3.36-9.87,6.37-10.36,10.13-2.38,18.38-12.63,29.87-28.21,38.41-8.95,4.91-17,11.43-26.3,17.79L166.05,356.65,309.57,264c1.59,1.29,2.86,1.82,3.26,2.73,2.38,5.38,4.13,13.12,11.86,9.14,3-1.54,2.74-9.11,4.28-13.83,1-3.2,1.9-8.22,4.08-9,35-12.8,70.27-25.05,100.57-35.71,16.26,23.48,32.18,44.85,46.35,67.33,17.38,27.57,33.15,56.15,49.89,84.13,7.81,13.06,13.29,12.93,20.9-.45,27.13-47.67,54.36-95.29,80.79-143.36,5.18-9.42,10.21-10.81,19.62-7.51,30.38,10.66,61.05,20.51,91.44,31.18,2.95,1,6.6,5.56,6.57,8.44-.06,6.3-3.23,14.27,5.55,15.31,4,.48,8.9-6,15.9-11.19l143.19,89.1L818.39,485.66c-15.68-10.53-31.56-19.59-45.28-31.2-5.52-4.66-6.48-14.86-9.17-22.65-2.06-5.95-2.93-14.36-11.56-10.94C749.4,422.05,746.86,431.36,748.29,435.51Z"/><path d="M333.71,290.66c.84,3.79,2,7.53,2.48,11.36,1.29,9.82,3,19.68,3,29.52,0,3.37-4.71,6.74-7.27,10.11-2.79-2.76-7.3-5.13-8-8.35a140.08,140.08,0,0,1-3.78-29.43c0-4,4.25-8.07,6.56-12.1Z"/><path d="M340.61,401.22c-2.63,1.61-6.32,5.62-9.71,5.38-2.56-.18-6.6-5.73-6.72-9a164.49,164.49,0,0,1,1.72-30.72c.46-3,5.29-5.43,8.11-8.11,2.57,3,7.13,5.91,7.33,9.08C342,378,341,388.33,340.61,401.22Z"/><path d="M755.87,332.48c-1.75,1.21-5.94,5.87-7.93,5.07-3.36-1.36-7.4-6.12-7.48-9.54a130.81,130.81,0,0,1,2.64-29.47c.69-3.35,5.85-5.79,9-8.64,2.38,3.46,6.73,6.91,6.76,10.38C758.89,310.11,757.17,320,755.87,332.48Z"/><path d="M757.41,397.79c-2.59,1.75-5.49,5.17-8.58,5.34-2.49.15-7.21-3.37-7.49-5.69a283,283,0,0,1-2.12-35.4c0-2.3,4.3-6.18,6.89-6.43s7.36,3,7.7,5.21C755.57,372.51,756.23,384.37,757.41,397.79Z"/><path class="cls-1" d="M318.93,459.18s47.66,134.3,4.51,408.08"/><path class="cls-1" d="M765.7,457.55s-48,134.2-5.4,408.07"/></svg>