<svg id="Capa_1" data-name="Capa 1" xmlns="http://www.w3.org/2000/svg" viewBox="0 0 1080 1080"><defs><style>.cls-1{fill:none;stroke:#000;stroke-miterlimit:10;stroke-width:13.24px;}</style></defs><path d="M950,204.27c-.39-6.85-4.28-9.28-11-10.06q-117.23-13.53-234.4-27.57c-21.72-2.58-21.72-2.72-29.28,18.18-21.81,60.24-32.8,123-43.49,185.87-3.62,21.28-6.52,42.68-9.74,64l-1.92.1-43.43-165c11.48,4.2,20.69,7.59,29.92,10.94s10.59,2.8,14.39-6.68q22.22-55.34,44.46-110.65c3.44-8.53,2.57-10.59-6.33-13.59C626,138.69,593,127.39,559.73,116.49c-11.46-3.75-23.09-7.88-35-9.34-27.42-3.37-55-5.34-82.57-7.51A22.72,22.72,0,0,0,430,102.08c-37.16,19.32-76.46,29.56-118.47,29.48-5,0-10.53,2-14.83,4.65q-32.37,20-64.13,41a130,130,0,0,0-21.18,17.56c-27.41,28.12-54.46,56.58-81.67,84.9-6.83,7.11-6.78,9.33.65,15.66q45.09,38.4,90.19,76.79c8.2,7,9.36,6.92,16.51-.85,6.56-7.13,13-14.34,20.6-22.67,1.3,4.82,2.18,7.7,2.85,10.63q29.36,128.21,58.68,256.43c2.62,11.47,3.66,12.12,14.78,9.39q124-30.48,248-60.94c8.07-2,16.19-3.73,24.52-5.65A20.46,20.46,0,0,1,607,562c-5.59,55-11.65,110-16.71,165-6.36,69.09-11.83,138.26-17.88,207.38-.88,10.1,3.92,12.33,17.48,12.19,35.57-.36,71.13,3.32,105.54,12.37,12.92,3.4,17.64,2,19-7.49q23.67-159.83,47.62-319.61l1-.28c0,2.53.15,5.06,0,7.57q-3.75,53.18-7.57,106.34-7.38,104.24-14.78,208.48c-.54,7.47.25,12.61,13,12A341.1,341.1,0,0,1,864.3,978.73c12.73,3.66,16.81,1.53,18-7.48,4.62-34.38,10-68.66,14.45-103.06q18.5-143.91,36.44-287.89c11.53-91.26,21.92-182.67,22.11-274.79C955.39,271.77,951.9,238,950,204.27ZM701.33,178.11q91.56,10.9,183.16,21.55,22.69,2.67,45.37,5.42c9.69,1.19,9.8,1.41,9.11,12.91L687.32,190.37C689,177.07,689.73,176.73,701.33,178.11ZM427.5,115.94c-3,10.79-5.19,19.14-7.81,27.35v0a27.22,27.22,0,0,1-1.74,6.37c-.89,2.38-1.58,4.77-2.25,7.21q-.72,2.6-1.45,5.17l.22-.05-2.55,8.72c-.19.78-.39,1.55-.57,2.33a.82.82,0,0,1-.23.41c-4.73,16.24-9.54,32.71-14.7,50.38l-34.07-35.57a.92.92,0,0,1-.54-.37c-.24-.34-.51-.65-.75-1-1.16-1.2-2.33-2.42-3.47-3.62a.89.89,0,0,1-.93-.42c-.36-.57-.73-1.13-1.1-1.69l-2.85-3,.08,0a70.42,70.42,0,0,1-5.71-6.5,101.69,101.69,0,0,0-8-7.85.74.74,0,0,1-.27-.47h0a3.88,3.88,0,0,1-.33-.23c-6.27-5.93-12.07-12.36-19.88-20.52C357.79,142.57,392.54,133.25,427.5,115.94ZM331,613.88c-5.42-23.24-10.64-45.4-15.73-67.6C299.6,478.13,283.86,410,268.67,341.74c-1.86-8.34-.15-17.41-1.07-26-.33-3.06-3.57-5.81-5.47-8.7-1.94,2.9-5.77,6-5.5,8.68,1.36,13.08-3.83,22.68-13.19,31.12-5.38,4.85-9.88,10.68-15.24,16.58l-89.35-76.21,83.9-87.44c1.31.63,2.27.79,2.7,1.35,2.52,3.33,5,8.38,9.68,4.37,1.81-1.55.4-6.74.69-10.25.19-2.38,0-6,1.35-6.89,22.08-14.56,44.4-28.78,63.57-41.08,15.06,13.54,29.55,25.69,43,38.89,16.5,16.19,32.06,33.34,48.18,49.91,7.54,7.74,11.3,6.76,14.36-3.72,10.93-37.34,21.94-74.66,32.33-112.16,2-7.35,5.28-9.13,12.31-8.39,22.72,2.39,45.5,4.18,68.21,6.57,2.21.24,5.47,2.77,5.92,4.76,1,4.35.1,10.37,6.33,9.66,2.87-.33,5.16-5.6,9.15-10.33l113.39,38.1c-14.65,36.55-29,72.27-43.73,109.07-12.54-4.71-25-8.37-36.35-14.14-4.57-2.32-6.9-9.19-10-14.13-2.4-3.77-4.37-9.43-9.77-5.66-1.86,1.3-2.1,8.14-.43,10.77,9.73,15.36,13.58,32.69,18.07,49.83q30.78,117.4,61.48,234.84c.62,2.4,1,4.86,1.69,8.07ZM936.82,435.31c-11.63,110.21-25,220.25-38.45,330.26-8,65.5-17.67,130.8-26.62,196.18-.26,1.92-.89,3.79-1.52,6.44-20.88-2.44-41.55-4.84-62.21-7.27-16.25-1.92-32.46-4.09-48.74-5.69-5.39-.53-7.07-2.17-6.66-7.8Q766,761.31,779,575.17c3-42.2,6.65-84.35,10-126.53.15-2,.92-4.26.19-5.83-1.06-2.25-3.09-5.33-5-5.53s-5.08,2.54-5.67,4.57c-1.4,4.82-1.52,10-2.28,15q-23,153.54-45.95,307.09-13.12,87.85-26,175.75c-.79,5.39-1.66,9-8.58,8.11-35.82-4.47-71.67-8.61-107.51-12.91a17.78,17.78,0,0,1-3.45-1.17c0-2.34-.18-4.55,0-6.73q17-182,33.88-364c.61-6.61,3.27-8.87,9.41-10.21,25.62-5.59,21.62-4.14,15.93-27-2.87-11.49-5.82-23-9.21-34.33a95.67,95.67,0,0,1-3-42C642.94,373,654.3,296.55,675.5,222c5.8-20.38,5.72-20.56,26.51-18.31,34.15,3.7,68.28,7.62,103.38,11.55-.53,6-1.66,11.56-1.26,17,.22,2.87,3.11,5.55,4.79,8.31q3.27-3.23,6.5-6.47c.17-.17.13-.54.19-.81,1.19-5.37.71-13.2,4-15.43,3.64-2.45,10.76.12,16.34.72,32.53,3.51,65,7.27,97.58,10.48,6.5.65,8.18,3.16,8.6,9.34C946.62,304.21,943.71,370,936.82,435.31Z"/><path d="M812.41,258.6c-1,8.76-1.24,15.32-2.88,21.5-.68,2.57-4.46,4.32-6.83,6.45-1.54-2.58-4.39-5.17-4.38-7.74a77.8,77.8,0,0,1,2.4-19.16c.71-2.73,4.2-4.74,6.43-7.08Z"/><path d="M780.75,419.06c1.1-8.75,1.33-15.3,3-21.47.71-2.64,4.37-4.48,6.69-6.68,1.62,2.55,4.63,5.13,4.59,7.66a87.25,87.25,0,0,1-2.67,19.95c-.63,2.49-4,4.28-6.19,6.39Z"/><path d="M792,326.92c1.29-9.12,1.84-16.16,3.51-22.94.51-2.07,4.08-3.39,6.24-5.05,1.61,2.25,4.62,4.54,4.56,6.76a102.11,102.11,0,0,1-2.61,20.83c-.59,2.51-4,4.35-6.17,6.49Z"/><path d="M786.62,372.39c1.12-8.79,1.39-15.36,3-21.58.62-2.38,4.32-3.95,6.62-5.88,1.5,2.38,4.26,4.78,4.24,7.16a77.19,77.19,0,0,1-2.29,19.23c-.78,2.92-4.49,5.07-6.87,7.57Z"/><path d="M243.78,214.22c1.2,2.47,2.59,4.87,3.57,7.43,2.49,6.57,5.31,13.09,6.9,19.89.55,2.33-2.14,5.42-3.36,8.16-2.37-1.45-5.87-2.34-6.9-4.45a98.57,98.57,0,0,1-7.42-19.69c-.69-2.77,1.61-6.27,2.55-9.43Z"/><path d="M266.62,289.4c-1.56,1.54-3.45,4.91-5.83,5.3-1.79.3-5.49-2.87-6.11-5.12a116,116,0,0,1-3.83-21.48c-.18-2.18,2.76-4.61,4.27-6.93,2.26,1.66,5.88,2.91,6.54,5.07C263.78,273.17,264.8,280.44,266.62,289.4Z"/><path d="M542,174.08c-1,1.12-3.14,5-4.64,4.79-2.54-.38-6.11-3-6.73-5.36a92.8,92.8,0,0,1-3-20.77c-.08-2.43,3.09-5,4.78-7.43,2.21,2,5.78,3.67,6.36,6.06C540.43,158.14,540.85,165.22,542,174.08Z"/><path d="M553.74,218.91c-1.5,1.63-3,4.46-5,5.08-1.7.51-5.52-1.15-6.1-2.7a202.26,202.26,0,0,1-7.25-24.09c-.37-1.59,2-5,3.71-5.56s5.57.85,6.16,2.33C548.34,201.76,550.73,209.84,553.74,218.91Z"/><path class="cls-1" d="M261.12,333S316,417.86,331,613.88"/><path class="cls-1" d="M569.23,258.8s-11.16,100.46,63,282.54"/></svg>