<svg id="Capa_1" data-name="Capa 1" xmlns="http://www.w3.org/2000/svg" viewBox="0 0 1080 1080"><path d="M373.37,665.69c-6.74,31.12-6.68,61,3.22,89.91,18.15,53,64.52,68.53,111.55,38.08,5-3.26,9.45-7.56,14.7-10.33,2.68-1.42,6.59-.53,9.94-.69-.89,3.36-.66,8-2.84,9.89C450.86,843.29,387,824.16,366,760.38c-8-24.25-8.44-51-12.18-75.6a12.56,12.56,0,0,0-2.33,3.81C315.9,781,321.29,868,385.31,947.39c2.39,3,2.23,8,3.25,12.05-4.17-1.5-9.87-1.76-12.3-4.71-33.6-40.72-54.07-86.84-57.51-140.18a297.54,297.54,0,0,1,9.24-94.1c.61-2.38,1-4.8,1.48-7.21l-4.33-3.65c-6.33,7.78-11.8,16.49-19.15,23.15-23.54,21.33-49.26,38.88-82.89,38.79-18.11,0-32.56-7.68-41.25-23.77s-6.91-32.36,2.63-47.56c14.8-23.57,38.29-36.06,63.53-43.14,31.56-8.86,64.19-13.95,96.38-20.59,3.25-.67,6.61-.83,11.84-1.46-6.56-13.15-16.32-20.8-27.81-26.64q-52.12-26.5-104.35-52.83c-21.18-10.65-25.27-21.13-14.56-42.29,24-47.39,48.84-94.33,72.5-141.87,28.15-56.57,70.72-99.22,123.25-133.3,86.22-55.94,179.15-94.87,280.36-113.5,9.66-1.78,19.52-2.56,29.3-3.65,21.44-2.39,36.65,6.77,45.69,25.89,28.74,60.77,57.85,121.38,85.61,182.59,18.75,41.33,35.64,83.5,53,125.43,9.09,21.89,4.92,31.82-16.83,41.67q-227.64,103.07-455.33,206c-20.43,9.24-30,5.88-40.91-13.8Q379.8,677.2,373.37,665.69ZM739.86,134.82c-7.85,10.92-13.16,18-18.16,25.34C694.46,200,657.32,225.58,611.1,239.1c-34.5,10.09-68.62,21.48-102.79,32.66-15.84,5.18-31.32,11.51-47.17,16.69-2.8.92-6.6-1.26-9.94-2a80.85,80.85,0,0,1,5.57-8.47c1-1.17,3-1.53,4.63-2.08,38.51-13.06,77.06-26,115.51-39.17,23.44-8,47.56-14.74,69.89-25.21,34.3-16.09,57.73-44.23,78.05-78.62-8.62.39-14.92.12-21,1.05A662.88,662.88,0,0,0,560.2,172.17C483.08,202.47,410.65,241,349.48,297.8c-15,13.9-26.64,31.35-39.82,47.16l3.58,3.53c3.79-2.41,7.41-5.13,11.38-7.19,30.77-15.93,61.54-31.88,92.55-47.34,2.86-1.43,7.4.52,11.15.9-1.93,3.17-3.39,6.8-5.94,9.36-2,2-5.37,2.5-8,3.85-25.57,13-51.7,25-76.51,39.3-22.66,13.06-44.73,28.12-57.32,52.18-20.84,39.83-40.72,80.17-60.74,120.44-6.7,13.47-5.17,17.08,8.52,24.08,24.42,12.48,48.55,25.59,73.41,37.11,31.13,14.44,61,29.78,75.48,63.7.12.28.74.34,2.35,1C390.76,641,402.7,635.29,415,630.57c3-1.16,7.28.79,11,1.31-2.15,3.08-3.61,7.45-6.55,9-11.23,6-22.94,11-34.06,16.22,0,2.06-.29,3,0,3.72,3.44,6.9,6.86,13.8,10.5,20.58,8.57,16,11.4,16.86,28.3,9.23Q587.55,616.82,750.85,543q63.81-28.86,127.57-57.8c7.73-3.5,15.77-7.32,12.43-17.76-3.58-11.21-8.56-22-13.12-33.46-12,5.41-22,10.49-32.43,14.26-3.84,1.38-8.79-.33-13.24-.63,2.65-3.3,4.65-7.8,8.08-9.65,10.39-5.6,21.33-10.16,33-15.54C831.56,325.24,792,229,739.86,134.82Zm-384,514.07c-4.67-.32-7.65-1.17-10.34-.61-31.72,6.63-63.81,12-94.91,20.86-15.56,4.44-30,14.34-43.62,23.68-12,8.23-19.37,20.86-18.41,36.22,1.36,21.74,22.93,35,47.88,29.64,21.47-4.61,39.56-15.87,56-30C318.39,706.5,338.7,680,355.87,648.89Z"/><path d="M704.89,509c-2,1.91-3.76,4.49-6.16,5.62-13.85,6.57-27.75,13.09-41.94,18.88-2.56,1-6.54-1.43-9.86-2.28,1.86-2.86,3.07-7,5.71-8.35,13.35-6.6,27-12.76,40.77-18.34,3.13-1.26,7.45.44,11.21.77Z"/><path d="M799.25,469c-2.66,1.3-5.28,2.68-8,3.9-14,6.34-27.86,12.91-42.06,18.69-2.52,1-6.41-1.32-9.67-2.11,1.79-2.89,2.89-7.16,5.48-8.45,13.34-6.65,26.93-12.85,40.74-18.48,3.08-1.26,7.37.42,11.1.74C797.66,465.22,798.45,467.12,799.25,469Z"/><path d="M560.83,577.53c-2.45-1.92-5.49-3.21-6.37-5.38-.59-1.46,1.34-5.3,3.07-6.11,15.09-7.08,30.31-13.89,45.72-20.25,2-.82,5.59.91,7.69,2.47.67.51-.4,5.63-1.82,6.33C593.45,562.36,577.54,569.67,560.83,577.53Z"/><path d="M468,619.66c-2.66-2.1-5.63-3.31-6.08-5.14s1.09-5.44,2.73-6.22C479.94,601,495.38,594,511,587.38c1.79-.75,5.32,1.39,7.33,3,.75.61.08,4.94-1,5.47C501.05,604,484.59,611.74,468,619.66Z"/></svg>