<svg id="Capa_1" data-name="Capa 1" xmlns="http://www.w3.org/2000/svg" viewBox="0 0 1080 1080"><path d="M104,742.46c-4.1-6.69-8.88-12.31-11.31-18.82-7.05-18.87,4.29-42,27.47-44.46,10.72-1.11,19.66,3.06,28.95,6.83q53.72,21.76,107.42,43.51c35.5,14.4,71,28.93,106.48,43.23,11.71,4.71,23.59,9,35.46,13.26a21.61,21.61,0,0,0,8,1.35c4.32-.18,10.39.51,12.54-2,4.06-4.65,4.43-11.48,2.39-17.77-2.45-7.56-8.05-12.54-14.33-16.88-13.41-9.24-28.44-15.17-43.48-21q-41.51-16.2-83.08-32.21c-27.4-10.55-54.85-21-82.28-31.45q-36-13.75-72-27.55c-5.77-2.21-8.16-5.19-8-10.06.19-5.29,3.47-7.7,8.23-9.2,23.46-7.37,46.86-14.93,70.28-22.39q38.55-12.29,77.12-24.5c23.29-7.34,46.64-14.52,69.93-21.89,20.85-6.59,41.63-13.41,62.48-20,21.59-6.85,43.22-13.54,64.83-20.33a87.23,87.23,0,0,0,9.95-3.45c7.54-3.45,14.38,0,21.29,2,27.3,7.93,54.53,16.11,81.83,24,25.6,7.44,51.28,14.62,76.89,22.05C684.08,561.4,707,568.52,730,575c13.61,3.79,20.44,14.42,26.52,25.38,15.52,28,.75,58.73-22.76,71.06-23.87,12.51-48.57,23.53-73.3,34.29-28.83,12.54-58,24.23-87.17,36.05-37.88,15.36-75.86,30.47-113.78,45.74-7.55,3-15.12,6.1-22.46,9.62-3.83,1.85-6.94,5.21-10.77,7a37.61,37.61,0,0,1-28.64,1.24c-25.15-8.74-50-18.37-74.78-28.12C294.35,766,266,754.32,237.6,742.78q-52.8-21.46-105.57-43c-10.75-4.39-20.36.21-22,10.77-1,6.27,1.38,11.86,6.68,14.87a287.25,287.25,0,0,0,27.84,13.7Q197.25,762,250.18,784.38c44.67,19,89.48,37.75,134,57.09,12,5.22,24.13,9.25,37.09,7.07,8.53-1.44,16.9-4.65,24.95-8,33-13.73,65.9-27.82,98.83-41.79q62.85-26.67,125.7-53.33,26.24-11.11,52.5-22.11c6.07-2.56,11.65-.92,13.88,4.08,2.42,5.41-.07,10.93-6.26,13.54-16.76,7.1-33.57,14.09-50.32,21.2q-58.23,24.68-116.42,49.41c-40.86,17.33-81.63,34.91-122.67,51.82-19.56,8.06-39.49,6.54-58.82-1.64C350.15,848,317.74,834,285.29,820.1q-51.09-21.87-102.17-43.72c-15.12-6.46-30.2-13-45.46-19.12-3.73-1.49-8.09-1.69-12.19-1.87-7.18-.31-12.37,2.8-14.45,8.2-2.56,6.67-1.64,13.17,3.94,17.46a93.59,93.59,0,0,0,19.3,11.33c22.38,9.82,45,19.12,67.48,28.64q48.75,20.63,97.47,41.3c29,12.31,58.06,24.3,86.74,37.21,19.07,8.58,37.18,8.58,56.38.14,42.39-18.64,85.18-36.37,127.81-54.45Q617.54,825.1,665,805q28.89-12.21,57.82-24.33c6.83-2.88,12.37-1.22,14.56,4.43s-.55,10.53-7,13.25q-50.29,21.23-100.56,42.51Q555.47,872.42,481.15,904c-14.85,6.28-29.64,12.74-44.76,18.29a61.64,61.64,0,0,1-42.89.28c-19.61-7.17-38.75-15.62-58-23.75-31.33-13.24-62.57-26.68-93.86-40-37.16-15.83-74.28-31.74-111.51-47.41C119,806.69,107.9,802.19,99.57,793a34.27,34.27,0,0,1,3.69-49.91A4.62,4.62,0,0,0,104,742.46Zm338.72,31a9.58,9.58,0,0,0,2-.35c31.68-12.77,63.42-25.43,95-38.38,43.13-17.68,86.29-35.3,129.18-53.52,19.08-8.11,37.88-17,56.18-26.74,10.69-5.68,17.15-15.66,18.37-28.19,1.06-10.9-4-19.5-11-27.18-2.08-2.3-4.63-4.86-7.45-5.74-13.71-4.27-27.6-8-41.4-11.93q-28.08-8.07-56.12-16.24t-56.1-16.36c-23.59-6.9-47.14-13.9-70.77-20.66-5.57-1.6-11.08-4.45-17.24-2-3.39,1.37-6.95,2.33-10.45,3.44q-41.07,13-82.17,26c-22.82,7.23-45.62,14.53-68.45,21.74-19.48,6.14-39,12.15-58.49,18.31-19.32,6.12-38.59,12.4-57.92,18.5-14.77,4.65-29.6,9.11-44.38,13.72-.92.29-1.65,1.17-2.79,2a14.12,14.12,0,0,0,2,1.3q46.95,18,93.91,35.89c34.13,13.11,68.32,26,102.29,39.56,17.77,7.07,35.44,14.58,52.56,23.08,12.39,6.15,23.27,14.92,29,28.24C440.43,762.73,441.23,768,442.71,773.47Z"/><path d="M424.16,429.69c-5.61,0-11.22.16-16.81-.06-3.37-.14-4.53,1.09-4.49,4.4.12,11.53-.07,23.06.14,34.58.07,4-1.2,5.54-5.23,5.13a46.32,46.32,0,0,0-9.12,0c-4.23.42-5.08-1.54-5-5.31.16-11.21-.15-22.42.08-33.62.09-4.09-1.33-5.18-5.24-5.11-11.2.2-22.41-.1-33.62.09-4,.07-5.43-1.38-5.12-5.3a65.45,65.45,0,0,0,0-9.6c-.22-3.43,1.26-4.44,4.54-4.4,11.52.15,23.05-.05,34.57.15,3.71.06,5.06-1,5-4.9-.27-11.2,0-22.41-.24-33.61-.08-3.95,1.25-5.29,5.24-5.31,14.11-.09,14.1-.22,14.11,13.69,0,8.48.16,17,0,25.45-.09,3.61,1.2,4.72,4.72,4.67,11.36-.17,22.73,0,34.1-.12,3.46-.05,5,1.07,4.92,4.66s0,7,.18,10.55c.14,2.83-1,4.1-3.89,4.06-6.24-.1-12.48,0-18.72,0Z"/><path d="M280.08,504.61c0,14,0,13.86-13.78,13.92-4.44,0-5.86-1.38-5.57-5.81.38-5.89,0-11.83.13-17.75.06-2.84-.87-4-3.88-3.9-6.39.19-12.8-.07-19.2.06-3,.07-4.44-.81-4.24-4.07a74.28,74.28,0,0,0-.06-10.55c-.34-4,1.37-5,5-4.81,6.07.27,12.16,0,18.23.2,3.22.12,4.19-1.12,4.12-4.18-.16-6.24.17-12.49-.13-18.72-.19-4,1.46-5.15,5.07-4.82,1.91.18,3.83.12,5.75.12,8.61,0,8.6,0,8.49,8.85-.05,4.64.23,9.3-.11,13.92-.29,4,1.36,4.93,5,4.77,5.91-.24,11.85.18,17.75-.15,4.38-.25,5.77,1.55,5.34,5.6-.24,2.22-.28,4.47-.32,6.7-.14,7.1-.13,7.1-7.47,7.1-5.44,0-10.89.1-16.32,0-2.92-.08-4,1.05-3.88,3.95C280.21,498.2,280.08,501.41,280.08,504.61Z"/><path d="M286.73,370.61c-10.52,0-10.52,0-10.52-10.58,0-8.52,0-8.44,8.63-8.56,4.11-.06,9.38.89,12-1.24,2.1-1.73,1.06-7.37,1.25-11.28.46-9.24.42-9.32,9.82-9.25,10.15.07,9.4-2.07,9.43,9.4,0,12.4,0,12.43,12.32,12.4,12.09,0,9.7,0,9.81,9.73.11,9.53,0,9.54-9.44,9.54-2.57,0-5.15.19-7.69-.06-3.94-.4-5.12,1.51-5,5.07.12,4.16-.12,8.33.13,12.48.19,3.28-.82,4.78-4.29,4.58a95.56,95.56,0,0,0-10.57,0c-3.49.19-4.51-1.58-4.44-4.66.08-4.16-.1-8.33.16-12.47s-1.23-5.66-5.3-5.15A49.93,49.93,0,0,1,286.73,370.61Z"/><path d="M814.48,214.51c2.37-17.37,4.29-34.81,6.23-52.24.67-6,4.52-9.44,9.87-8.29,3.88.83,6,4,5.8,9.33-.78,26.06-5.27,51.59-11.27,76.88-.84,3.56-.55,5.81,2.4,8.36,6.79,5.88,11.08,13.84,10.18,22.61-1,9.83,3.35,14.15,11.66,16.62,2.67.79,5.23,2,7.92,2.72,22.09,6,43.13,1.93,63.55-7,1.19-.52,2.13-3.12,2.1-4.72-.5-28.44-1.48-56.87-1.66-85.31-.07-10.83,1.39-21.7,2.58-32.5.58-5.32,4.33-7.82,9.11-7.08,4.34.66,6.82,4.26,6.25,9.33-4.35,38.65-2.17,77.31-.29,116,.06,1.21.63,3.08,1.49,3.47,10.2,4.59,14.1,14.15,18.2,23.3,9,20.08,10,41.13,6.83,62.61-.32,2.19-.56,4.91.43,6.67,9.43,16.76,16,34.66,21.83,52.9a38.82,38.82,0,0,1-26.27,49c-44.2,12.65-89.39,18.56-135.24,19.68A673.65,673.65,0,0,1,679.7,483.91a627.55,627.55,0,0,1-112.13-32.66c-27.18-10.85-32.91-44.48-13.51-64.89C579,360.13,610,344.77,646,340.24c16.51-2.08,33-3.84,48.83-9.51,41.87-15,72.63-43.05,94-81.54,4.83-8.71,8.89-15.6,20.67-9.91C811.28,230.29,813.39,222.47,814.48,214.51ZM914.71,409.92c2.27,5.45,1.24,9.87-3.17,11.94s-8.84.17-11.1-5.35c-2.71-6.61-5-13.37-7.46-20.09-.7-1.94-1.09-3.64-4-3.42-19.2,1.51-38.43,2.83-57.64,4.22a7.11,7.11,0,0,0-1.52.73c0,6.91.21,14.19-.06,21.44-.25,6.5-7.1,10.24-11.9,6.4a10.92,10.92,0,0,1-3.4-7.09c-.45-6.8-.15-13.64-.15-21.09-2-.1-3.78-.21-5.57-.28-15.06-.53-30.13-1-45.18-1.66-2.83-.13-3.6.83-4.34,3.35-1.93,6.54-4.05,13.05-6.6,19.36-2.42,6-7.12,8.05-11.69,5.82-4.39-2.13-5.08-6.64-2.58-12.49,2.36-5.52,4.17-11.28,6.52-17.74-3.42-.45-6-.67-8.49-1.14-14-2.59-28.11-5.13-42.11-8-2.64-.54-3.73,0-5.2,2.15-5.09,7.4-10.25,14.8-15.88,21.79-3.55,4.4-8.46,4.56-11.79,1.34-3.58-3.46-3.33-7.37.35-12,4.63-5.78,9-11.74,14-18.2-6.71-2.43-12.47-4.23-18-6.58-9-3.83-17.79-8.13-26.79-12a10.18,10.18,0,0,0-6.52-.62,143.66,143.66,0,0,0-57.77,34.76c-11.68,11.5-12.9,33.87,8.81,42.2a654.89,654.89,0,0,0,128.44,34.7A643.82,643.82,0,0,0,864.66,479a501.6,501.6,0,0,0,88.92-15.75c17.42-4.74,24.3-17.83,17.89-34.65-5.31-13.91-11.25-27.58-16.93-41.35-.88-2.11-1.93-3.6-4.85-3.09-13.75,2.42-27.55,4.61-42.24,7C910,397.82,912.2,403.93,914.71,409.92ZM677.77,363.46c44.82,14.23,91,18,137.7,17.68,43.65-.28,86.87-4.8,129.83-12.34,2.71-.48,4.34-1.28,4.75-4.48,1.64-12.89,1.61-25.65-1.78-38.83-1.41.6-2.51,1-3.5,1.51-31.53,17.63-64.32,20.7-98.44,8.63-5.8-2.05-8.34-6.09-6.82-10.82s6-6.55,11.84-4.53c22.5,7.76,45.12,8.72,67.65.59,8.08-2.91,15.7-7.14,24.25-11.1-2.61-4.2-4.27-7.54-6.56-10.37-2.77-3.43-6.34-2-9.86-.91-10.52,3.24-20.92,7.22-31.68,9.18-21.22,3.88-41.81,1.24-61-9.39-.93-.52-2-.88-3.21-1.44-2.7,3.49-5.27,7-8,10.31-15,18.33-32.06,34.52-53.67,44.71-19.87,9.38-39.35,7.07-57.3-5.73-3.07-2.2-5.5-2.45-9.22-1.48-14.25,3.68-28.68,6.69-43,10l-2.22.48-.27,1.14C664.08,358.65,670.86,361.27,677.77,363.46Zm88-27.87C787.5,323,805,305.8,819,284.93c7.35-11,1.3-26.51-11.41-30-2.85-.8-3.85.56-5,2.68a183.35,183.35,0,0,1-44.42,54.67c-9.06,7.49-19.22,13.64-28.89,20.39-1.13.79-2.33,1.47-4.26,2.66C739.13,342.79,752.6,343.15,765.72,335.59Z"/></svg>