<svg id="Capa_1" data-name="Capa 1" xmlns="http://www.w3.org/2000/svg" viewBox="0 0 1080 1080"><defs><style>.cls-1,.cls-2{stroke:#000;stroke-miterlimit:10;}.cls-1{stroke-width:6.67px;}.cls-2{stroke-width:5.64px;}</style></defs><path class="cls-1" d="M850.73,162.2c2.9-8.83,5.73-17.28,8.46-25.76,2.8-8.66,2.75-8.64,11.4-5.83Q910,143.4,949.45,156.17c5.77,1.87,5.91,2.18,3.9,8-5.83,16.89-12,33.67-17.45,50.67-4.35,16-13.57,55.26,5.5,63.94,28.77,7,46.12,38,30.71,65-9.66,16.87-26.2,28.24-40.89,40.44-31.16,21.87-34.53,62.66-59.33,89.19-14.69,15.23-36,1.18-52.81-2.83-10-2.54-13.39,32.78-43.3,23.68q-37.44-11.82-74.73-24.16a17.82,17.82,0,0,1-12.31-17.39c.09-9.12.54-24.67,13.69-21.7,17.16,5.38,34.89,9.64,44.38-9.53,14.1-25.12,19-54.06,27.25-81.39a66.32,66.32,0,0,0,2.34-20c-2.52-101.22-24-68.48,13.63-172.76,1.1-3.41,3-3.84,6.06-2.82C814.37,150.5,832.36,156.34,850.73,162.2Zm-55-11.45C788,170.7,782.43,191.66,775.54,212a49.18,49.18,0,0,0-1.42,24c5,33.11,10.91,67.34,6.77,100.75-5.77,21.56-11.48,43.15-18.12,64.45C738.4,476.26,701.32,421.4,695.43,442c-1.31,8.5-2,19.26,7.92,22.53,24.11,8.1,48.46,15.57,72.61,23.58,27.66,8.49,35.65-27.93,45.64-46.14,12-31.52,39.76-50.21,64.07-71.76,26-23.87,18.54-61.73-18.76-71.44-27.09-14-6.95-73.91,1.05-96.28-18.22-7.16-36.67-13.47-55-20.34-2.89-.64-6.19-2.16-5.82-5.54.86-1.5,4.36-2,6.13-.77,19.09,7,37.77,13.88,56.94,20.87l7-19.58ZM856.49,164c40.17,13.79,28.92-.74,10.38,60.87-4.94,16.83-16,58.86,3.47,68.76,9.29,4.2,19.58,7.08,26.33,15.26,28,32.35-4.48,70-33.44,88.52-23.15,16.8-33.94,41.37-44.85,66.84,15.34,2.63,38,18.36,50.2,4,23.16-27.44,27.92-67,58.74-88.71C942,366.51,960.76,355.82,968.8,337c7.06-16.48,1.23-40.95-20.32-48.81-13-3.88-23.47-11-23.72-25.81-4-35.41,12.85-67.53,22.92-100.5l-81.79-26.46Z"/><path d="M800.62,945.23a5,5,0,0,0,1.2-2.26v.83l.42-.51c.87-20.6-4.26-41.46-.77-61.83-3.78-62.84-13.2-129.76-31.8-190.94-3.35-24.44-4.87-50.25-36.26-49.93-60.07-.18-120.15-.11-180.22-.11q-78.62,0-157.24.06c-21.95,0-32.55,10.48-36.2,32.23-14.94,69.93-33.21,139.44-33.52,211.52.12,33.19-12.7,82,34.46,87.64,43.62,6.25,87.21,12.86,130.8,19.43,17.77,2.74,32.76-1.36,43.84-16.28,8.88-11.74,7.14-26.86,8.92-40.67,1.81-24.26,37-24.63,38.62.21-.58,82.52,64.21,52.61,118,47,20.71-3.05,41.35-6.74,62.13-9.15,18-2.08,31-9.59,37.65-26.39A.57.57,0,0,1,800.62,945.23ZM719.7,654.32C620.28,693,507.42,692.9,408,654.32ZM525,964.82c-4.17,10.81-16.41,14.77-29.13,12.82-45.18-7-90.48-13.15-135.65-20.09-13.45-2.23-21.06-11-20.51-24.77,2-79,5.47-158.78,30.82-234.27,8.81,1.5,31.86,17.29,35.61,5.11,1.46-5.64-2.25-7.9-6.82-9.55-6.16-3.17-23.46-6.26-25.76-12,1.6-7.11-.46-25.8,11.63-20.54,112.44,47.69,243.39,47.57,356,.52,7.09-2.65,9.28-1.89,11,5.59.62,5.68,4.84,14.62-1.68,18-19,6.57-37.86,13.8-57.23,19.09-81.75,22.39-168.82,22.76-251,2.1-5.95-1-15.53-6.15-17.9,2.39-1.29,4.76.93,8,5.65,8.94,22.86,4.53,45.05,9.81,68.12,13.55-.48,41.51-.7,83-2.16,124.45-1,28.08,7.11,51.84,27.3,71.48,2.64,2.57,6.51,6.07,6.34,8.94C529,946.12,528.36,956.08,525,964.82ZM788,932c-.17,14.26-7.3,23-21.63,25.15C731,962.55,695.48,967.7,660,973q-15.24,2.25-30.45,4.63c-30.33,4.43-42.39-38.27-20.38-56.28,19.71-19.26,24.31-44.19,22-70.78-.36-4.15-2.7-6.9-7-6.87-16.54,0,7.31,42.58-31.2,74.55-12.71-21.7-45.65-22.16-58.35.13-17.33-16-25.27-34.83-24.68-57.66,1-42.08,1.63-84.3,2-126.37H614.75c1.53,27,1.3,54.62,2.07,81.75.08,4.56,1.33,8.06,6.38,8.65,4.61.55,7.52-3.13,7.43-9.41-.32-28.27-1.22-55.64-1.08-84.06A518.29,518.29,0,0,0,757.3,697.69C780,774,789,852.62,788,932Z"/><path class="cls-2" d="M487.51,204.56c-.79-22.18-1.35-44.37-2.52-66.53-.34-6.5,1.79-8.39,7.91-7.86,5.14.44,10.37-.21,15.5.31,1.44.14,3.79,2.71,3.78,4.16-.43,53-1.2,106-.52,158.93a35.51,35.51,0,0,0,2.67,11.72c7.49,17.65,12.19,37,22,53.45,9.62,11.61,19.49,23,29,34.7a14.29,14.29,0,0,1,3.26,8c-2.4,56.69,14.74,45.38-40.66,46.76-2.32.06-5.59,1.58-6.73,3.46-23.63,37-76.89,36.64-115.61,29.12-18.22-4.75-33.95-13.34-45-29.27-1.3-1.87-4.56-3.25-7-3.32-10.42.86-37.1-3.45-43.78,3.3-26.93,43.72-133.56,45.94-159.4,1.71-2.45-4.19-5.36-5.38-9.91-5.25-10.56.3-21.13,0-31.69.27-5.16.14-7.31-1.41-7.17-6.94,1.74-14.25-3.64-36.1,3.69-48,9.16-11.42,18.85-22.42,28.06-33.8,9.92-16.89,15.09-36.49,22.71-54.53,7.26-53.13.65-108.5,2.69-162.36,0-12.35-.17-12.35,12.67-12.35,14.07,0,13.65,0,13.43,14,3.17,175-31.76,138.76,95.07,186,21.94,9.42,37.93,26.11,43.66,50.33,5.2,5.28,11.73,1.68,17.6,2.35,1.77.2,5.15-1.82,5.58-3.41C364.73,302,487.35,328.41,486.3,273.06c.12-22.83,0-45.66,0-68.49Zm-310.14,3.82h-1.24c.74-21.53,1.29-43.07,2.32-64.59.28-5.77-1.42-7.3-7.14-7.31-6.23,0-5.67,3.52-5.67,7.51-1.56,53.34,3.41,107.67-2,160.55-3.86,10-8.68,19.71-12.58,29.73C134.82,378,132.59,456.46,187.2,472.32c71.91,20.06,145.13-8.31,129-94.2-13.83-45-65.16-50.33-103.18-64.48-29.6-9.7-35.28-20.9-35.61-45.19C177.16,248.43,177.37,228.4,177.37,208.38Zm314.86-71.17c0,44.86,1,89.6.49,134.44-.25,22.8-8.72,32.81-30.42,40.18-21.38,7.26-43.21,13.43-64.05,22C331,356.91,336.56,459.76,410.32,475.15c34.6,5.9,90.73,6.34,107-30.93,18.69-43,14.48-91.71-7.52-132.58-4-7.71-5.28-15.58-5.23-24.18.25-47.83.05-95.66.33-143.49C505.51,134.82,498.86,136.33,492.23,137.21Zm34.32,303.94c11.54,0,21.83.12,32.12-.15,1.19,0,3.29-2.2,3.32-3.42,2.74-34.83.09-44.17-27.1-68.58C536.57,393.93,535.51,417.4,526.55,441.15Zm-382.78-.06c-8.66-23.76-10.21-47.39-8.14-72-10.24,7.38-16.79,19.4-25.47,28.71a9.21,9.21,0,0,0-1.81,5.31c-.15,11.2-.16,22.41.05,33.61,0,1.46,1.62,4.12,2.54,4.15C121.62,441.19,132.32,441.09,143.77,441.09Zm210.7.23A249.55,249.55,0,0,1,345.39,403c-1.36-13.44-1.59-13.13-15-12.59-4-.34-4.86,1.67-5.19,5.4-1.37,15.79-3.13,30.52-9.16,45.55Z"/></svg>