<svg id="Capa_1" data-name="Capa 1" xmlns="http://www.w3.org/2000/svg" viewBox="0 0 1080 1080"><path d="M715.23,217.72c-4.1-38-12.21-75.54-18.54-113.28-1.29-7.66-6-9.92-13.66-10q-133.62-.7-267.23-2c-24.76-.22-24.78-.37-30.7,24.08C368,187.07,363.42,259.1,359.17,331.15c-1.44,24.4-2.05,48.84-3,73.26h-.07c0,.81.08,1.63.09,2.44.44,1.39.93,2.77,1.47,4.13q1.83,4.51,3.63,9c2.78,7,7.48,6.94,7.73-.22,3-87.48,6.35-174.89,21-261.43,4-23.65,3.88-23.84,27.56-23.88,38.9-.07,77.79.11,117.79.19.14,6.82-.45,13.22.69,19.3.59,3.21,4.18,5.86,6.42,8.76,2.18-2.69,4.36-5.37,6.51-8.08.17-.21.08-.63.11-.94.68-6.19-.83-14.94,2.61-17.86,3.79-3.21,12.12-1.2,18.48-1.21,37-.08,74.08.12,111.12-.29,7.4-.08,9.59,2.55,10.83,9.45,13.2,73.52,18.06,147.86,18.4,222.29.56,125.48-.83,251-2.38,376.46-.92,74.71-3.69,149.4-5.67,224.09-.06,2.19-.53,4.37-.92,7.44-23.79-.16-47.35-.3-70.91-.48-18.52-.14-37.05-.59-55.56-.37-6.13.07-8.22-1.57-8.47-8q-8-211.12-16.37-422.24c-1.82-47.87-3-95.76-4.42-143.64-.07-2.23.51-4.91-.51-6.58-1.46-2.41-4.13-5.63-6.27-5.62s-5.41,3.49-5.82,5.85c-1,5.6-.48,11.45-.7,17.19q-6.84,175.65-13.7,351.31-3.88,100.52-7.52,201c-.22,6.16-.76,10.31-8.65,10.19-40.87-.6-81.74-.82-122.61-1.21a22.39,22.39,0,0,1-4-.89c-.29-2.64-.77-5.11-.81-7.59q-3.42-206.91-6.93-413.82c0-2.19.18-5.33-.07-5.26-2,.75-9.21,3-10.77,3.39-.88.37-1.76.74-2.63,1.13.09.36.65,126.19,1.77,188.77,1.4,78.55,3.81,157.08,5.56,235.62.26,11.47,5.94,13.39,21.18,11.55,40-4.8,80.47-5.06,120.32.86,15,2.22,20.1,0,20.5-10.8q6.85-182.81,14-365.6l1.13-.44c.32,2.84.8,5.67.91,8.51q2.37,60.32,4.65,120.62Q549.4,855.87,554,974.1c.32,8.48,1.85,14.16,16.11,11.91a386.37,386.37,0,0,1,126,.68c14.78,2.55,19.11-.35,19.36-10.64.94-39.27,2.78-78.52,3.49-117.78,2-109.51,3.61-219,5.37-328.53C726.05,425.59,726.42,321.43,715.23,217.72Zm-315.89-96.4c.24-15.18,1-15.65,14.25-15.53q104.4.94,208.81,1.58,25.88.18,51.73.47c11.06.15,11.21.38,11.86,13.4Z"/><path d="M548.58,182.63c-.11,10,.49,17.39-.58,24.55-.45,3-4.49,5.42-6.89,8.1-2.06-2.71-5.58-5.27-5.89-8.17a87.78,87.78,0,0,1,.33-21.85c.46-3.17,4.14-5.86,6.36-8.77Z"/><path d="M532.81,367.14c.16-10-.39-17.38.7-24.54.47-3.05,4.36-5.57,6.7-8.34,2.14,2.68,5.85,5.2,6.12,8.05a99.29,99.29,0,0,1-.54,22.79c-.4,2.88-4,5.32-6.18,8Z"/><path d="M534.06,262c.32-10.41.08-18.42,1.12-26.25.31-2.39,4.16-4.32,6.4-6.46,2.08,2.34,5.75,4.55,6,7a115.16,115.16,0,0,1-.37,23.77c-.36,2.9-4,5.39-6.14,8.07Z"/><path d="M533.64,313.89c.17-10-.33-17.47.72-24.67.41-2.75,4.38-5,6.73-7.44,2,2.51,5.38,4.86,5.66,7.54a86.9,86.9,0,0,1-.2,21.92c-.52,3.39-4.43,6.27-6.8,9.37Z"/><path d="M356.13,404.41v1.46a13.12,13.12,0,0,1,0,2.08L354.75,552.3,368.17,544l.81-124.2Z"/></svg>