<svg id="Capa_1" data-name="Capa 1" xmlns="http://www.w3.org/2000/svg" viewBox="0 0 1080 1080"><defs><style>.cls-1{fill:#010101;}.cls-2{fill:#606060;}</style></defs><path class="cls-1" d="M947.85,670.65C946.49,648.33,945,626,940,604.08c-16.22-70.7-43.32-137-80.15-199.44-27.5-46.61-59.13-90.16-96.3-129.59-3.87-4.11-8-7.6-13.45-9.7Q692.29,243,634.6,220.44c-7.48-2.91-14.74-6.5-19.58-13-7.46-10-16.48-18.6-24.39-28.18a25,25,0,0,0-14.38-8.85c-40.51-9.07-81.1-8.89-121.74-1-8.31,1.6-15.74,5.18-20.89,12.17-7.14,9.66-15.72,18-23.62,27a34.41,34.41,0,0,1-13.61,9.51q-57.51,22.41-115,45c-6.84,2.68-13.47,5.56-18.59,11.14a431.83,431.83,0,0,0-43.93,56.11C169.33,406.25,141.85,490,131,579.51c-2.61,21.45.32,42.56,10.1,62.23,21.51,43.25,48,83.1,80.91,118.6,19.18,20.7,40.61,37.84,68.36,46a35.25,35.25,0,0,1,17.73,11.27c.85-.37,1.68-.78,2.46-1.19a99.05,99.05,0,0,0,14.08-9.34c3.56-2.7,7.06-5.52,10.39-8.51,7.14-6.39,14.59-12.4,21.56-19,2.66-2.52,5.54-4.82,8.14-7.42a30.1,30.1,0,0,0,3.66-4.24,8.66,8.66,0,0,0,1.49-3.23,7.31,7.31,0,0,1-1.49-3.4,1.75,1.75,0,0,0-.74-1.14c-9.64-5.1-10.05-16.42-16.11-23.95-1.72-2.15-1-5-.05-7.62,3.09-8.06,2.76-16.16,0-24.19-3.06-8.81-6.41-17.56-11.77-25.27-2.46-3.54-1.69-5.32,1.58-7.72,8-5.9,15.68-12.23,23.5-18.39,5.4-4.26,8.23-9.9,9.37-16.63q4.77-28.21,9.8-56.41c1.13-6.38.5-12.26-3.23-17.76s-7-11-10.58-16.46c-3.25-5-4.92-4.9-7.67.34Q341,587,319.67,627.87c-1.19,2.27-2.48,4.49-4.21,7.61-3.14-6.27-5.86-11.62-8.51-17-6.13-12.51-12.45-24.93-18.25-37.59C282,566.35,275.51,551.76,269.37,537c-2.32-5.57-.91-8.43,2-12.31,13.37-17.86,19.12-38.51,21.52-60.27,4.69-42.51,1.39-84.73-5.15-126.78-2.48-15.94-4.26-32-8.49-47.66-1.06-3.94,1-6.32,4.48-7.53,37.67-13.19,74.49-28.6,112-42.3,4.49-1.65,9-3.18,13.61-4.6,3.71-1.14,4.92,1.76,6.16,4.27a156,156,0,0,0,18.82,29.92,106,106,0,0,0,53.06,35.46c11.86,3.55,14.34,6.86,14.35,19.41q.09,215.45.13,430.88c0,9.69-2.52,12.18-12.16,12.16-11.18,0-22.34-.21-33.36-2.75-7.92-1.83-15.75.3-23.54,1.72-11.9,2.16-23.78,2.61-35.62-.31-6.48-1.6-12.93-1.21-19.43-.13-2.28.38-4.49.54-6.21-.25-.9,3-3.63,5.75-5.69,7.78-1.51,1.49-3.1,2.89-4.71,4.27-2,1.71-3.88,3.58-5.82,5.37-6.53,6-13.35,11.71-20,17.53q-5.94,5.14-12.3,9.79c-1.63,1.2-8,6-13.66,8.51a39.94,39.94,0,0,1,6.95,18.23c1.48,10.73,7.25,17.43,17.43,20.8a142.88,142.88,0,0,0,36.52,6.95c21.6,1.3,43.21.78,64.81.7q102.16-.39,204.32-.62c17.39,0,34.31-2.59,51.18-6.52,14.86-3.47,23.23-12,26.27-27.15,5.69-28.26,19.2-52,43-69.13a26.47,26.47,0,0,0,10.83-17.37c1.53-8.56,2.69-17.19,3.73-25.82,3-24.84,4-49.84,5.84-75.21,1.75,1.25,1.83,2.76,2.28,4,17.12,47.62,28.9,96.37,31.28,147.12.63,13.39,4.4,25.64,12.61,36.41a19.53,19.53,0,0,1,4,13.1c-.7,14.9-1.22,29.81-2.06,44.7-.42,7.32,2.77,12.07,9,15.37,7.1,3.74,14.81,5.57,22.48,7.5,17.08,4.29,34.29,6,51.66,1.75,7.86-1.94,10.52-5.37,9.93-13.28-.7-9.32-.54-18.65-.38-28,.24-14.2,2.18-28.13,11.81-39.36,6.24-7.27,9.65-15.54,11.3-24.65,4.22-23.31,5-46.92,5.63-70.53C950.36,715.66,949.22,693.14,947.85,670.65ZM311.77,746.46c-2.34,1.51-4.7,3.21-7.3,4-13.43,4.33-22.21,13.73-28.81,25.66-5.39,9.72-8.69,10.55-17.56,3.65-9.11-7.08-16.81-15.7-24.77-24a441.79,441.79,0,0,1-84.66-124.78c-7.14-15.78-8.91-32.21-6.77-49.2,4.86-38.6,12.18-76.68,24.16-113.77,3.28-10.16,6.64-20.31,11.47-30.07,3.63,13.62,6.52,27.29,10.37,40.73,12.33,43,31.26,83.11,53.21,121.88,19.37,34.21,38.94,68.29,58.41,102.44,5.09,8.93,8.76,18.53,12.76,28,1.38,3.27.64,7,2,10.34C315.1,743.4,313.53,745.31,311.77,746.46ZM319,637.6q23-43.47,45.87-87c.61-1.16,1.36-3.68,3.06-1.17,3.83,5.64,7.5,11.41,10.88,17.33a18,18,0,0,1,1.89,8.64q-3,17.44-6,34.89c-1.44,8.42-2.78,16.85-4.28,25.26a25.85,25.85,0,0,1-10.05,16.28c-7.38,5.7-14.88,11.24-22.22,17-2.24,1.76-3.29,1.7-4.83-.92-4.95-8.41-9.85-16.84-14.22-25.58A4.66,4.66,0,0,1,319,637.6Zm-9.42-2.06c9.45,17.81,19.32,35.41,29.27,53a62,62,0,0,1,8.23,29.72c.21,8.58-.14,9.12-8.4,12-5.49,1.93-10.21,5.26-15.13,8.21-2.93,1.76-4.57,1.36-5.16-2.12-2.44-14.2-9.35-26.58-16-39.05-18.53-34.67-39.3-68.06-58.49-102.35-25-44.66-45.76-91-56.85-141.26-1.84-8.33-3.91-16.63-4.43-25.19-.3-5,.53-9.61,4-13.47a5.79,5.79,0,0,0,1.24-1.94c7.39-22.6,19.89-42.64,31.66-63,.58-1,1.05-2.66,2.51-2.37,1.65.33,1.13,2,1,3.14-5.25,49.68,6.76,96.53,23.35,142.65A1088.9,1088.9,0,0,0,309.57,635.54ZM285.36,359.43c2,17.92,4,35.84,4.31,53.88.5,29.61-.35,59.09-10.94,87.31-3.23,8.61-7.15,16.86-14.46,24-6.12-14.44-11.25-28.58-16.16-42.81-10.44-30.22-17.9-61.11-20.16-93.09-1-14.58-1.27-29.16,2-43.61,4-17.62,12.59-32.6,25.12-45.5,4.33-4.45,8.25-9.3,12.41-13.93,1.1-1.23,2.05-3.08,4.06-2.66s2.08,2.59,2.36,4.16C278.19,311.22,282.63,335.19,285.36,359.43Zm99.76,477.48a83.18,83.18,0,0,1-.34-19.12C385.32,824.15,386.51,830.5,385.12,836.91Zm27.32-19.11c-1.82-8.67-2-22.65-2.51-36.62C412.87,795,412.67,809,412.44,817.8ZM436,840.73a159.63,159.63,0,0,1-1.71-27C436.07,821.66,436.47,831.17,436,840.73Zm413.73-431a536.43,536.43,0,0,1,41.57,81.32c.47,1.17,1.3,2.59-.06,3.32-2,1.1-3-.81-4-2.13-10.39-13.74-20.91-27.39-31-41.31-5-6.92-10.62-13.35-16-20-2.57-3.14-4.73-6.52-5.26-10.09-.12-5.38,5-11.83,9.68-13.13A4.19,4.19,0,0,1,849.7,409.74Zm-12.14-17.31c3,.58,3.86,3.31,5.15,5.52s.49,3.94-1.28,5.34c-3.66,2.89-7.34,5.76-11.07,8.55-6,4.45-6.3,6.05-1.69,12.11q23.69,31.19,47.48,62.29c2.45,3.21,4.92,6.42,7.18,9.76.92,1.35,3.39,3,1.17,4.69s-3.24-.9-4.29-2.26q-10-12.87-19.92-25.85-20.68-27-41.3-54.11c-5.76-7.6-5.27-9.81,2.69-14.65A93.83,93.83,0,0,0,833.1,395,11.06,11.06,0,0,1,837.56,392.43ZM863.37,494q-26-34.12-51.87-68.3c-2.11-2.79-4.35-5.59-4.94-10.09,5.08,2.44,8,5.88,10.72,9.44q27.75,36.28,55.38,72.65c1.41,1.85,2.56,3.89,3.87,5.81.79,1.16,1.13,2.27-.1,3.3-1.44,1.21-2.62.5-3.58-.7C869.66,502.06,866.48,498,863.37,494Zm4.32,15.78c-.18,2.41.1,4.18-1.82,4.8s-2.64-1.14-3.55-2.33l-59-78a28.69,28.69,0,0,1-2.11-3.06,3.72,3.72,0,0,1,1.14-5.31c2.39-1.8,3.3.34,4.36,1.74q22.29,29.3,44.54,58.62c4.61,6.06,9.27,12.07,13.91,18.11C866.55,506.17,867.92,508.06,867.69,509.74ZM492.86,847.26c-6.22.24-12.34-.62-18.52-.66-3.68,0-4.14-2.58-4.14-5.44V809.5c0-10.4,0-20.8,0-31.2,0-5.19.83-5.29,6.06-5.54,6.18-.28,12.34-.22,18.51-.2,4.92,0,6.81,1.31,6.91,6.51.18,9-.13,18-.11,27,0,10.71.2,21.42.26,32.12C501.89,846.35,500.88,846.94,492.86,847.26Zm15.28-2.54h-.27V380.58h.27Zm.66-512.51c.05-2.79.14-5.26,4-5.4s4.25,2.15,4,5c.2,3,.18,5.92-4,5.85C509.16,337.61,508.74,335.1,508.8,332.21ZM516.71,846c-3.41,0-1.63-4.31-1.63-6.58q-.18-113.32-.1-226.64t0-226.64c0-2.34-.88-6.36,1.85-6.36s1.64,4,1.64,6.25q.06,153.18,0,306.38,0,73.44-.06,146.89C518.49,841.64,519.81,846,516.71,846ZM501.8,301.51c-20.75-19.65-32.66-44.24-39.83-71.43-1.66-6.27-.75-7.41,5.52-9.17a150.68,150.68,0,0,1,43.31-5.27c16.66-.09,33.11,2.13,49.54,4.7,3,.47,4,1.28,3.4,4.8-4.9,29.85-19.17,54.75-39.94,76.19C515.84,309.55,510.05,309.33,501.8,301.51ZM554,842c0,3.57-1.9,5-5.21,5.12-6.68.12-13.35.23-20,.28-4.11,0-4.71-2.86-4.72-6,0-11.18,0-22.36,0-33.55h0c0-10.56,0-21.12,0-31.68,0-6.63,1-7.07,7.36-6.24,5.78.74,11,3.19,16.55,4.57,4.18,1,6.09,4.3,6.11,8.36C554.15,802.54,554,822.27,554,842Zm122.32-48c-.83-4.45-1.39-8.84-3.42-12.93-.64-1.28-.77-2.94,1.1-3.38s2.27,1.2,2.29,2.61C676.39,784.83,676.35,789.4,676.35,794Zm23.18-3.1h-.45V779.5l.45.41Zm75.16-240.43c-1.72,7.79-1.4,16.06-1.66,24.13-.61,18.81-3.68,37.42-4.36,56.21-1.06,29.05-2.15,58.08-5.47,87-.71,6.17-1.58,12.32-2.33,18.48-1.41,11.53-7.85,19.32-18,24.35-1.94,1-3.73,1.78-4.67,4.13a5.63,5.63,0,0,1-5.7,3.33c-21-.64-41.94,2.11-62.94.94-4.64-.26-9.42-.35-13.86-1.55-12.76-3.45-25.18-2.16-37.72,1.1-21.32,5.54-42.83,7.44-64.56,2.28-7.14-1.69-13.8-4.72-20.66-7.18-6.56-2.36-8.91-6.34-8.86-13.7.39-53.32.23-106.64.25-160V534h.19q0-109.14-.1-218.26c0-4.91,1.53-7.7,6.27-8.7,39.12-8.21,63.7-33.6,80.43-68.18,1.4-2.88,2.31-4,6.2-2.86,19.4,5.75,37.77,14.21,56.76,21,22.51,8.06,44.76,16.85,67.18,25.16,4.64,1.72,5.55,4.8,4.9,9.15-3.48,23.5-7.24,47-10.25,70.53-4.73,37-6.64,74-.5,111,3,17.9,8.13,35.12,18.69,50.26,4.05,5.79,8.81,11,14.88,14.6C773.85,540.79,776.16,543.79,774.69,550.44ZM938.87,748.76c-.31,11.6-1.71,23.11-2.69,34.66-.5,5.85-1.38,11.66-2,17.48a51.32,51.32,0,0,1-5.84,19.85c-2.74,4.86-6.78,6.53-12.7,5.48A266.48,266.48,0,0,1,876,815.9c-10.2-3.48-20-3.65-30.07,0-1.9.69-3.85,1.23-5.78,1.83-8,2.48-8.94,2-12.21-5.67-2.12-5-2.57-10.26-2.81-15.52-1.61-34.62-8.27-68.43-16.48-102-6.47-26.43-15.29-52.15-25-77.55-1.38-3.62-3.15-7.1-4.88-10.58a16,16,0,0,1-1.71-9c2.37-16,.05-32.42,3.78-48.37,1.08-4.62.27-9.12-4.21-11.94-19.84-12.49-29.23-31.64-33.82-53.64-5.36-25.7-6.63-51.74-5.33-77.93,2-39.18,8.24-77.8,15.23-116.33.36-2-.85-5,1.89-5.67,2.33-.54,3.45,2.22,4.9,3.75,23.35,24.69,44,51.55,63.16,79.53,2.72,4,5.27,8.07,7.67,12.24,3.13,5.4,2.69,8.24-2.26,12.08-11,8.59-22.21,17-33.38,25.43-6.61,5-7,7-1.92,13.64q33,43.47,65.93,86.92c4.64,6.11,6.36,6.3,12.49,1.57,6.39-4.94,12.77-9.91,19.23-14.76,3.94-2.95,5.28-2.43,7.1,2.19,7.82,19.9,15.22,39.92,20.94,60.58,4.65,16.8,10,33.38,12.79,50.65,1.41,8.79,2.59,17.57,3.32,26.46.62,7.54,1.32,15.1,1.86,22.66,1.3,18.08,2.71,36.17,2.75,54.32C939.19,730.11,939.12,739.44,938.87,748.76Z"/><path class="cls-2" d="M515,612.74q0-113.32,0-226.64c0-2.34-.88-6.36,1.85-6.36s1.64,4,1.64,6.25q.06,153.18,0,306.38,0,73.44-.06,146.89c0,2.38,1.32,6.72-1.78,6.7-3.41,0-1.63-4.31-1.63-6.58Q514.9,726.06,515,612.74Z"/><path class="cls-2" d="M508.14,380.58V844.72h-.27V380.58Z"/><path class="cls-2" d="M516.8,331.82c.2,3,.18,5.92-4,5.85-3.67-.06-4.09-2.57-4-5.46s.14-5.26,4-5.4S517.08,329,516.8,331.82Z"/><path class="cls-2" d="M412.44,817.8c-1.82-8.67-2-22.65-2.51-36.62C412.87,795,412.67,809,412.44,817.8Z"/><path class="cls-2" d="M436,840.73a159.63,159.63,0,0,1-1.71-27C436.07,821.66,436.47,831.17,436,840.73Z"/><path class="cls-2" d="M676.35,794c-.83-4.45-1.39-8.84-3.42-12.93-.64-1.28-.77-2.94,1.1-3.38s2.27,1.2,2.29,2.61C676.39,784.83,676.35,789.4,676.35,794Z"/><path class="cls-2" d="M385.12,836.91a83.18,83.18,0,0,1-.34-19.12C385.32,824.15,386.51,830.5,385.12,836.91Z"/><path class="cls-2" d="M699.53,779.91v11h-.45V779.5Z"/><path class="cls-1" d="M644.88,574.52c.11-3.9.77-7.24,2.64-10.2q6-9.45,12.08-18.81c3.2-4.9,4.69-4.84,7.55.6,10.39,19.79,20.65,39.64,31,59.43,10.52,20.06,21.16,40.07,31.69,60.14,3.37,6.43,3.14,7.48-2,12.55-2.52,2.51-5.2,4.88-7.6,7.51-3,3.32-6.57,3.76-10,1.37-16.58-11.5-33.15-23-48.14-36.63-4.36-4-5.92-9.33-6.88-14.94q-5-29.12-10-58.21C645.05,576.27,645,575.18,644.88,574.52Zm69.61,109.85c.15,0,.46,0,.77,0,2.55-.33,11.93-9.6,12.28-12.2a2.57,2.57,0,0,0-.25-1.78c-3-3.53-3.64-8.13-5.78-12.08-8.58-15.84-16.87-31.84-25.26-47.78q-15.72-29.91-31.42-59.83c-1.32-2.53-2.32-3-3.94-.21a63.8,63.8,0,0,1-6.06,9.39c-5.39,6.38-6.34,13.59-5,21.45,3,17.75,6,35.53,9,53.28a26.06,26.06,0,0,0,9.89,16.91q20.21,15.39,40.55,30.63A9.09,9.09,0,0,0,714.49,684.37Z"/></svg>