<svg id="Capa_1" data-name="Capa 1" xmlns="http://www.w3.org/2000/svg" viewBox="0 0 1080 1080"><defs><style>.cls-1,.cls-2,.cls-3,.cls-4,.cls-5,.cls-6{fill:none;stroke:#000;stroke-miterlimit:10;}.cls-1{stroke-width:11.97px;}.cls-2{stroke-width:5.38px;}.cls-3{stroke-width:2.59px;}.cls-4{stroke-width:4.79px;}.cls-5{stroke-width:5.98px;}.cls-6{stroke-width:8.97px;}</style></defs><path d="M548.36,602.32c5.61-17.42,10.74-35,16.17-52.49.72-2.31,2-4.44,4.17-9.28,0,26.44,2.3,50.05-.43,73-8.51,71.57-19,142.89-28.59,214.32q-2.07,15.33-4.18,30.68c1.55-2.38,6.13-1.82,6.13,1.75,0,11.15-.08,22.29.06,33.42,10-76.43,19.29-153,31.15-229.07,10.11-64.9,6.2-129.87,7.42-194.86.28-14.9,0-14.92,14.21-14.92,19.95,0,39.91.14,59.86-.11,4.86-.07,12.25,2.61,12.36-5.91,0-1.83-8.36-5.27-12.94-5.4-21.29-.59-42.61-.59-63.91-.12-7.7.18-10-2.56-9.68-10.35.5-14.5.49-29-.12-43.53-.16-3.65-3.39-7.16-5.21-10.73-1.86,3.45-5.25,6.85-5.33,10.34-.49,21.94-1,43.93,0,65.83,1.24,27.62-2.21,54.07-11.48,80-7,19.51-12.21,39.7-18.27,59.57-3.66,12-7.06,14-18.73,11.06-5.2-1.32-10.37-2.73-15.55-4.09a86.27,86.27,0,0,1,1.89,12c5,1.32,9.93,2.71,14.91,4C534.58,620.72,544.16,615.31,548.36,602.32Z"/><path d="M917.84,575.27q-26.6-114.93-53-229.92c-6.56-28.6-21.87-49.81-47.62-62.25-9.51-4.59-19-9.44-28.78-13.16-8.45-3.19-11.07-8.67-10.88-17.7.46-22.29.18-44.6.15-66.9,0-51.2-40.63-93.38-89.4-93s-88.75,41.85-88.85,92.47c0,21.59-.55,43.2.21,64.77.39,11.21-2.68,17.89-13.32,21.42-9,3-17.42,7.69-26,11.82a88.29,88.29,0,0,0-21.22,14.32,4.91,4.91,0,0,1,.28.5c1.42,3.65,2.6,7.38,3.72,11.13a81.82,81.82,0,0,1,24.91-17.22c9.92-4.51,19.74-9.22,29.65-13.74,8-3.65,11.75-9.69,11.63-19.07q-.44-35.58,0-71.16c.56-41.79,28-75.56,66.87-82.83,36.29-6.78,73.47,16.12,86.53,54.33,3.23,9.46,4.6,20,4.92,30.09.7,22.64.48,45.32.08,68-.18,10.62,3.81,17.29,13.13,21.39,12.45,5.48,24.88,11.13,36.87,17.6,18.41,9.94,30.41,26.05,35.33,46.9,18.33,77.58,36.16,155.28,54.1,233,2.8,12.14.5,16-11.11,19.12-13.4,3.64-26.82,7.21-40.28,10.56-11.19,2.79-14.58.72-18-10.66-9.05-29.63-18.2-59.23-26.9-89A73.56,73.56,0,0,1,808,486.28c-.28-31.86.05-63.72-.36-95.58,0-4-3.19-8-4.89-12-2,4.17-5.42,8.27-5.63,12.54-.72,14.47-.51,29-.19,43.52.14,6.53-2.18,8.6-8.28,8.52-21.31-.27-42.62-.09-63.93-.08-2,0-4.37-.69-6,.15-3.18,1.62-6,4.09-8.93,6.21,2.87,1.75,5.72,5,8.63,5,22,.44,44,1,65.93,0,10.87-.5,13,3.46,12.73,13.78-.64,26.54.78,53.15-.43,79.64-2.33,51.31,5.72,101.53,12.57,151.92l21.54,158.6c3.14,23.11,6.21,46.23,9.45,69.32,3.28,23.29-6.47,37.58-28.63,41.56-11.66,2.09-23.35,4-35,6.14-22.25,4.09-36.76-6.87-40.16-30.36q-16-110.65-32.09-221.3c-.45-3.09-.78-7.32-2.72-8.86-9.53-7.53-7.4-18-7.41-28q-.06-91.86,0-183.73c0-63.72.2-127.44-.21-191.16-.06-9.73,2.85-16.56,9.24-23.23,8.09-8.47,16.51-17.14,22.4-27.25,16.07-27.55,15.26-57.92,10.53-88.48-.36-2.36-1.69-4.62-2.83-6.78C721,143,700,140.29,671.7,144.76c-19.59,3.1-31.74,20.27-33.25,42.49-2.69,39.68,4.56,75.51,35.75,102.18,6.75,5.78,9,12.91,9,22.24q-.43,191.7-.17,383.39c0,6.76.22,13-6,18-2.66,2.16-3.61,7.44-4.2,11.48q-16.32,111.14-32.34,222.33c-3.1,21.26-18.06,32.39-38.51,28.87-11-1.9-22-3.91-33-5.86-12.73-2.27-21.27-6.19-26.36-12.66a2,2,0,0,1-.08.22,18.58,18.58,0,0,1-7.44,8c6.27,7.6,15.41,12.77,26.59,14.56q19,3,38,6.44c27.52,4.87,47.27-9.52,51.49-38.46,10.45-71.65,20.48-143.37,31-215,.72-4.9,4.17-9.37,6.36-14,2.15,4.69,5.52,9.19,6.27,14.12,6.47,42.59,12.42,85.27,18.6,127.92,4.51,31.1,8.31,62.36,14,93.23,4.33,23.62,24.64,36.71,47.06,32.82,13.33-2.32,26.67-4.59,40-6.93,25.63-4.5,39.29-22.48,36.45-49.28-2.35-22.14-5.66-44.16-8.63-66.21-8.46-62.67-16.51-125.4-25.6-188-6.41-44.14-11.48-88.25-7.81-136.44,2,5.3,3.09,7.76,3.88,10.32,5.2,16.81,10.14,33.71,15.54,50.45,4.92,15.27,13.59,20,28.16,16.14l44.19-11.82C916,601.12,921.51,591.15,917.84,575.27ZM649.91,182.19a32.27,32.27,0,0,1,3.22-10c7.37-15.63,26.86-22,50.44-16.58,14.62,3.33,24.09,16.2,24.06,33.55,0,13.07.32,26.27-1.29,39.16-3.21,25.61-19.86,42.58-37,58.88C652.8,261.29,645.53,224,649.91,182.19Z"/><path d="M502.11,422.91c-2.5-.16-5-.57-7.5-.58l-.07,0q-10.25,44.42-20.48,88.83a3.35,3.35,0,0,1,1.16,1.1,64,64,0,0,1,6.43,13.63q11.89-51.53,23.81-103A23.46,23.46,0,0,1,502.11,422.91Z"/><path class="cls-1" d="M185.32,954.22,214.39,972l148-2.69s64.05,39.83,173.87-4.31l5.92-1.07S539.38,600.2,460,484l.54-53.33,14.89-17.78s58.91,19.42,90.8-23.69L521.35,227.33s-13.58-28.94-37.8-40.75l-35.44-18.31-35.43-30.71L317,152.91l-28.94,26.58s-65,26.58-67.92,47.84L161.07,399.8s46.66,26,95.09,20.08l5.9,13-19.49,94.51L220.13,600l-17.72,183.1s-16.54,85.64-11.81,125.81Z"/><polygon class="cls-2" points="283.2 182.53 262.89 227.8 302.24 206.65 299.7 234.57 342.01 275.19 316.62 189.3 318.31 152.92 283.2 182.53"/><polygon class="cls-2" points="382.88 186.31 412.68 137.56 452.01 173.65 442.28 215.11 394.89 205.38 394.47 227.38 340.54 268.33 337.33 254.71 382.88 186.31"/><polyline class="cls-3" points="316.62 189.3 333.81 172.36 394.01 167.62"/><polyline class="cls-4" points="241.21 220.97 233.34 349.2 250.77 377.88 251.03 410.72 257.57 418.04"/><path class="cls-4" d="M437.07,377.63,474.5,220.5s6.58-13.45,9.32.55V231.3l3.9.15"/><path class="cls-4" d="M471.81,337.17S488.28,226.9,507.25,223"/><path class="cls-4" d="M459.68,302.25s11.57,73.87,9.79,94.79l4.89,13.79"/><path class="cls-5" d="M476.71,410.44s64.5-23.14,86.1-19.44"/><polyline class="cls-5" points="342.07 280.88 348.53 292.29 348.53 431.1"/><path class="cls-4" d="M290.22,431.19l-12.37-50.68s-4-37.4,11.44-34.31c0,0,11.12,9.58,9,55.94"/><path class="cls-4" d="M366.3,379.07s-.59-57.87,9.38-17.79c0,0,10.29,59.15,7.79,68.57"/><polyline class="cls-4" points="468.83 398.38 447.89 432.42 459.24 432.42"/><line class="cls-6" x1="262.71" y1="432.43" x2="460.5" y2="432.43"/><line class="cls-6" x1="249.74" y1="485.38" x2="461.12" y2="485.38"/><path class="cls-4" d="M286.77,486.48s-15.31,23.12-15.62,43.12"/><path class="cls-4" d="M388,487.11s14.37,22.81,11.56,34.68"/><line class="cls-5" x1="349.4" y1="486.82" x2="349.4" y2="923.17"/><path class="cls-5" d="M193.63,909.35s7.06,13.75,32.72,13.75H360.57s17.84,2.23,32,14.13c0,0,56.89,7.44,91.47-.74l54.65-8.93"/></svg>