<svg id="Capa_1" data-name="Capa 1" xmlns="http://www.w3.org/2000/svg" viewBox="0 0 1080 1080"><path d="M345,383.88c-2.76,2.43-4.4,3.72-5.87,5.19-14.88,14.84-29.88,29.57-44.44,44.72a17.25,17.25,0,0,0-4.41,10.76c-.29,52.33-.2,104.66-.21,157,0,10.07-1.42,11.55-11.19,11.55q-49.92,0-99.84,0c-11.24,0-12.19-1-12.19-12.48q0-103.46-.1-206.91a16.56,16.56,0,0,1,5.14-12.81q84.86-84.57,169.65-169.22a16.23,16.23,0,0,1,9.67-4.21c29.09-1.8,55.13-11,77.5-30.13,9.8-8.39,20.05-16.29,30.38-24a17.13,17.13,0,0,1,9.48-3.41q70.29-.33,140.57,0a18.71,18.71,0,0,1,10.1,3.64c14.2,10.24,28,21.06,42.17,31.31,19.15,13.83,40.84,21,64.29,22.09,6.78.33,11.28,2.85,15.84,7.45C795.59,269,849.64,323.58,904.22,377.66c6.79,6.72,9.08,13,9,22.16-.33,67.22-.17,134.44-.18,201.66,0,10.41-1.2,11.6-11.75,11.6q-49.92,0-99.84,0c-10.29,0-11.62-1.36-11.62-11.8,0-51.68-.07-103.35.1-155a15.88,15.88,0,0,0-5.3-12.58c-13.83-13.42-27.31-27.18-41-40.77-1.31-1.3-2.84-2.37-5.71-4.73v8.51q0,248,0,495.94c0,15,0,15-14.69,18.2C628.94,931.2,533.79,935.75,438,923.68c-27.32-3.44-54.4-8.81-81.54-13.57-10.45-1.84-10.86-2.85-10.86-13.44q0-252.24,0-504.47C345.6,389.93,345.28,387.66,345,383.88Zm275.43-114c4.64,9.24,8.7,18.71,14,27.45,4.5,7.45,3,13-1.81,19.51q-41.15,55.74-81.56,112a25.09,25.09,0,0,0-4.43,13.71q-.33,214.48-.16,429c0,9.45-1.8,13-6.69,12.43-7.81-1-6.2-7.28-6.2-12.28q-.07-214.47.05-429a23.89,23.89,0,0,0-5-15.06c-27.5-37.38-54.69-75-82.17-112.37-4.14-5.63-5-10.53-1.29-16.75,4.35-7.32,7.88-15.14,11.67-22.79,1-2,1.71-4.23,2.73-6.81-2.14-.35-3.38-.68-4.64-.74-10.58-.51-10.57-.5-13.66-10.25q-6.76-21.27-13.56-42.54c-1.72-5.31-3.62-10.56-5.55-16.19-2.23,1-3.67,1.5-4.94,2.27-18.39,11.07-38.58,16.18-59.71,18.55a18.2,18.2,0,0,0-10.07,4.72Q266,305.44,184.87,386.35a16.31,16.31,0,0,0-5.3,12.66q.21,96.56,0,193.13c0,6.25,1.75,8.33,8.13,8.26,26.93-.3,53.87-.13,80.8-.13,8.62,0,8.64,0,8.64-8.72q0-97.89,0-195.77c0-3.06-.67-6.46.44-9.08,1-2.31,4.06-5.19,6.14-5.13s5.3,3,6,5.33c1.05,3.41.35,7.36.36,11.09,0,6.39,0,12.78,0,21,3.1-2.7,4.62-3.87,6-5.21q15.79-15.78,31.56-31.6c6.35-6.34,12.55-12.85,19.24-18.81,1.75-1.57,5.56-2.55,7.52-1.71s3,4.22,4,6.68c.54,1.31.09,3,.09,4.55q0,112.66,0,225.33c0,12.26-1.37,11.07,11.41,11.1,20.59,0,41.17,0,61.75,0,8.68,0,10.25,1.68,10.26,10.52,0,16.42,0,32.84-.05,49.27-.23,45.34-31.38,82.17-76.11,89.35-5.95.95-7.42,2.95-7.39,8.6.21,40.73.29,81.46-.06,122.19-.06,6.44,2,8.66,8,9.88a890.89,890.89,0,0,0,124.19,16.67,858.5,858.5,0,0,0,225.93-16.52c6.14-1.27,8.6-3.48,8.55-10.18-.32-40.94-.25-81.89-.08-122.84,0-5.27-1.72-6.9-6.92-7.75-44.41-7.23-75.53-44-75.64-89q-.06-25,0-49.93c0-8.93,1.27-10.24,10.32-10.27,20.81-.06,41.61,0,62.41,0,9.76,0,9.78,0,9.78-9.54q0-74.89,0-149.78c0-25.19-.12-50.37.21-75.55,0-3,2-7.47,4.24-8.38s6.68,1,8.85,3.11c10.31,9.8,20.13,20.11,30.19,30.16,6.56,6.56,13.25,13,20.95,20.53.28-3.55.54-5.41.55-7.27,0-7.22.13-14.45,0-21.68-.1-4.78.55-9.38,6.31-9.57,6.5-.22,6.72,4.92,6.66,9.77,0,1.53,0,3.06,0,4.6q0,98.21-.11,196.42c0,6.16,1.6,8.36,8.08,8.29,27.58-.33,55.18-.24,82.77,0,5.14,0,6.83-1.69,6.82-6.84-.13-65.25,0-130.51-.24-195.76a13.42,13.42,0,0,0-3.4-8.65q-81.56-82.36-163.55-164.29A19,19,0,0,0,722.4,220c-20.51-2.17-40-7.31-58-17.69-2-1.14-4.08-2-6.51-3.2-1,2.91-1.8,4.94-2.46,7-5,15.41-10.42,30.69-14.62,46.31-2.77,10.32-6.49,17.93-18.92,16.31C621.77,268.72,621.58,269,620.42,269.89ZM602.34,163.16H475.72l63.19,150.71,2-.13Zm12.92,3.42c-1.49,3.3-2.52,5.44-3.41,7.63q-31.19,76.56-62.22,153.17a43.38,43.38,0,0,0-3,15.14c-.34,19.9-.15,39.82-.12,59.73,0,2.25.28,4.5.55,8.63,2.49-2.89,3.81-4.22,4.89-5.71,23.1-31.61,46.24-63.18,69.07-95,1.48-2.06,1.66-6.36.56-8.74-5.22-11.31-11.14-22.29-16.72-33.43-4.35-8.69-1.85-12.58,8-12.67,2.63,0,5.27-.2,7.88,0,3.93.34,6-1.34,7.12-5.07,5.72-18.37,11.71-36.65,17.28-55.06.61-2,0-5.69-1.43-6.87C634.71,181.06,625.37,174.24,615.26,166.58Zm-152.22.1c-8.83,6.94-16.36,13.22-24.28,18.94-4.27,3.09-5.12,6.19-3.47,11.13,4.95,14.72,9.56,29.55,14.1,44.4,4.22,13.81,4.1,13.85,18.84,14.2,8.61.2,11.24,4.09,7.52,11.75-5.44,11.22-11,22.37-16.91,33.37-2.13,4-2,7,.75,10.69Q494,358,528.08,405a65.75,65.75,0,0,0,4.7,5,35.34,35.34,0,0,0,.66-4.05c0-22.77.11-45.54-.05-68.3a22.56,22.56,0,0,0-2.14-8.13q-23.61-56.65-47.36-113.23C477.15,200.24,470.37,184.14,463,166.68ZM393.87,622.32c-9.41,0-18.83.23-28.23-.09-5.25-.18-7.29,1.25-7.26,6.95q.36,55.16,0,110.31c0,5.64,1.4,7.21,7.2,6.09,36.11-7,61.76-36.28,63.43-73.6.65-14.64.07-29.33.23-44,0-4.26-1.63-5.8-5.84-5.72C413.57,622.46,403.72,622.33,393.87,622.32Zm329.91,124a21.26,21.26,0,0,0,1-4.07q0-57.48,0-114.94c0-4.17-2.07-5.06-5.76-5-19.26.1-38.53.12-57.79,0-4.49,0-6.2,1.46-6.13,6.08.22,14.22-.11,28.46.14,42.69.32,18.11,6.11,34.4,17.85,48.28C686.24,734.78,702.92,743.81,723.78,746.33Z"/><path d="M497.69,521.11a10.46,10.46,0,0,1-10.56,10.29,10.81,10.81,0,0,1-10.8-10.91,11.36,11.36,0,0,1,10.75-10.44A10.85,10.85,0,0,1,497.69,521.11Z"/><path d="M487.41,817.46a10.91,10.91,0,0,1-11.18-10.54c-.08-5.34,4.92-10.36,10.54-10.6a10.7,10.7,0,0,1,11,10.64A10.38,10.38,0,0,1,487.41,817.46Z"/><path d="M486.71,674.65c-5.31-.11-10.41-5.44-10.36-10.81a11.13,11.13,0,0,1,11.14-10.65,10.74,10.74,0,0,1-.78,21.46Z"/></svg>