<svg id="Capa_1" data-name="Capa 1" xmlns="http://www.w3.org/2000/svg" viewBox="0 0 1080 1080"><defs><style>.cls-1{stroke:#000;stroke-miterlimit:10;stroke-width:1.67px;}</style></defs><path class="cls-1" d="M529.17,388c9.16,4.63,17.83,9.21,26.72,13.31,1.36.62,4-.54,5.57-1.61,2.42-1.67,4.27-4.13,6.58-6,5.3-4.2,10.73-5,15.93.21s4.71,10.46.48,15.89c-.91,1.17-1.79,2.35-3.27,4.3l32.49,16.43c5-4.79,9.6-9.65,14.69-13.88,6.69-5.56,12.32-5.52,17.17-.62,5,5.07,4.7,11-1.29,17.71-2.3,2.55-5.19,4.57-8.76,7.66L676,462c5.15-5.4,9.78-10.94,15.12-15.67,6.47-5.74,13.07-5.57,17.8-.45s4.49,10.61-1.42,17.11c-3,3.25-6.8,5.69-11.13,9.22,15.73,7.92,29.35,14.93,43.16,21.52,1.51.72,4.7-.34,6.18-1.63,4.64-4.07,8.58-8.93,13.25-12.95,7.83-6.75,13.65-6.94,18.84-1.26,4.69,5.12,3.9,11.57-2.64,18.34-3.2,3.32-6.88,6.18-10.35,9.24l.93,2.84c7.82,1.36,15.65,2.67,23.47,4.1,45.68,8.35,91.38,16.59,137,25.17,23.38,4.39,38,18.65,42.63,41.85,5,24.93,2.64,48-18.52,66.24-37.77,32.61-82.21,51.64-129.58,64.73-38.22,10.56-77.26,16.52-116.77,20a941.42,941.42,0,0,1-152.05.94c-29.56-2.15-58.87-7.64-88.42-10-17.38-1.4-35-.14-52.53.78-59.1,3.11-118.2,5.95-177.24-.73-30.08-3.4-59.67-9-87.06-22.7-13.22-6.61-24.89-15.29-33.43-27.57-6.37-9.18-5.63-13.83,2.71-20.94,15.26-13,21.19-31,24.37-49.55,4.4-25.78,7.36-51.82,10.28-77.83,4.68-41.68,6.56-83.85,21.2-123.77,3.63-9.9,8.93-19.22,13.78-28.63,2.72-5.28,7.24-8.05,13.47-7s8.42,5.73,9.6,11c1.84,8.18,2.85,16.58,5,24.68,11.07,41.6,43.38,61.34,85.76,52.74,32.5-6.59,59.47-23.65,84.19-44.74a267.13,267.13,0,0,0,48.85-54.52c4.7-7,9.44-8.2,17.23-4.36,17.08,8.4,34.11,16.9,51,25.68,4.21,2.18,7.09,2.3,10.13-1.65a33.41,33.41,0,0,1,6.59-5.94c5.21-3.93,10.4-4.18,15.35.6s4.76,9.93.91,15.25C532.37,383.89,531,385.59,529.17,388ZM177.41,493.54c1.72.33,2.65.59,3.59.67,30.58,2.39,61.16,4.91,91.76,7,6.13.43,10.72,2.33,14.75,7,25.84,30,52,59.7,77.71,89.74a19.77,19.77,0,0,0,13,7.26c4.41.61,8.82,1.21,13.22,1.83q78.94,11.2,157.88,22.43c46.5,6.66,92.9,14,140,15.38,57.14,1.65,113.74-1.74,169.34-15.91,29.39-7.49,57.4-18.39,83.24-34.52,3.84-2.39,5.24-4.54,4.1-9.47-2.89-12.52-9.32-21.09-22.36-23.7-35.35-7.09-70.76-13.88-106.05-21.29-23.5-4.94-48.59-2.53-70.23-15.42-5.63,5.28-10.81,10.6-16.49,15.31-5.15,4.28-10.71,4.83-15.86-.49-4.57-4.71-4.77-9.88-.06-15.95,2.81-3.62,6.1-6.88,9.52-10.69-13.86-7-27-13.78-40.44-20.07-1.85-.87-5.56.09-7.33,1.53-5.34,4.35-9.86,9.72-15.26,14-5,3.93-10.49,4.16-15.38-.73s-4.53-10.23-.5-15.28c3.5-4.38,7.51-8.36,11.87-13.15-12.24-6.18-24-12.3-36-18-1.44-.68-4.56.59-6,1.92-5.16,4.6-9.65,10-14.92,14.42-6.59,5.56-12.36,5.49-17.22.7s-4.9-10.38.62-17.11c3.54-4.31,7.62-8.19,12-12.88-9.61-4.89-18.7-9.23-27.49-14.11-4-2.23-6.44-1.61-9.47,1.63-6.59,7-13.45,13.84-20.48,20.44-5.13,4.81-11.26,4.89-16.09.64-5.13-4.52-5.35-9.83-1.63-15.23a83.94,83.94,0,0,1,7.58-9.09c3.75-4.05,7.69-7.93,12-12.34l-29.82-15c-7.46,7.72-14.74,15.46-22.26,23-5.52,5.5-12.23,5.9-17.21,1.43s-5.47-10-.57-16.51c3.1-4.12,7-7.68,10.57-11.4,2.32-2.39,4.81-4.62,7.77-7.44l-41.12-20.62c-11,12.37-20.74,24.59-31.78,35.51-31.61,31.28-67.67,55.52-111.78,65.49-51,11.51-89.82-9.33-109.17-57.82-.59-1.48-1.4-2.88-2.84-5.76C183.22,438.76,179.63,465.88,177.41,493.54ZM137.51,664.9c6.53,4.32,13.64,10.14,21.67,14.15,29.32,14.67,61.31,18.72,93.39,21.2,52.43,4.07,104.84,1.34,157.22-2.08,16.76-1.1,34-3.85,50.31-1.34,46,7.08,92.19,11.91,138.73,13,69.74,1.67,138.93-2.7,206.87-19.77,41.3-10.37,80.56-25.49,115.17-51,4.89-3.6,9.41-7.7,14.1-11.58C923.45,631,913,636,902.1,639.9c-77.57,28.18-158.1,32.89-239.27,26.83C611.63,662.91,560.7,655,509.77,648c-55.82-7.66-111.51-16.22-167.23-24.65-43.49-6.58-86.93-13.5-130.37-20.4-15.28-2.43-30.49-5.28-45.48-7.9-3.77,12.5-6.42,24.65-11.12,35.94S144.16,652.64,137.51,664.9ZM333,597.67a17.39,17.39,0,0,0-1.58-2.79c-19.32-22.48-38.59-45-58.15-67.28-1.8-2.05-5.44-3.19-8.34-3.44-17.72-1.53-35.47-2.69-53.2-3.95-12.2-.87-24.4-1.69-36.87-2.55-1.81,18.56-3.5,35.9-5.21,53.52Z"/><path class="cls-1" d="M688.33,605.11c.28,9.38-6,14.72-14.67,12.51q-46.29-11.83-92.44-24.23-90.53-24.2-181-48.6a79.65,79.65,0,0,1-7.84-2.18c-6.52-2.47-9.29-7.89-7.41-14.09,2.08-6.85,7.21-10.14,14.21-8.34,20.09,5.18,40.1,10.64,60.14,16Q567.38,565.12,675.46,594C682,595.78,687.83,598,688.33,605.11Z"/><path class="cls-1" d="M578.73,514.81c.1,10.71-6.32,16-14.74,13.79q-79.46-21-158.82-42.3c-8.23-2.21-11.33-7.66-9.43-14.94,1.79-6.85,7.65-9.88,15.88-7.69q78.33,20.88,156.62,41.9C574.33,507.19,578.58,510.15,578.73,514.81Z"/></svg>