<svg width="22" height="22" viewBox="0 0 22 22" fill="none" xmlns="http://www.w3.org/2000/svg">
<g clip-path="url(#clip0_770_540)">
<path d="M17.0716 7.04342C16.9251 6.90102 16.7196 6.83627 16.5183 6.8694C16.3168 6.90236 16.1427 7.0289 16.0492 7.21048C15.7276 7.83521 15.3191 8.40931 14.8385 8.91682C14.8864 8.55025 14.9106 8.18141 14.9106 7.81162C14.9106 7.10203 14.8155 6.37182 14.6278 5.64114C14.0109 3.2409 12.3932 1.21097 10.1895 0.0719572C9.99777 -0.0272147 9.76904 -0.0236483 9.58024 0.0812384C9.39152 0.186211 9.2679 0.378668 9.25097 0.593942C9.07918 2.77521 7.95559 4.75972 6.16671 6.03984C6.143 6.0569 6.11949 6.07418 6.09599 6.09136C6.04735 6.12703 6.00141 6.16067 5.95857 6.18895C5.95187 6.19341 5.94521 6.19797 5.93864 6.20265C4.81354 7.00819 3.8852 8.08198 3.25391 9.30826C2.61238 10.5556 2.28711 11.8941 2.28711 13.2865C2.28711 13.9959 2.3822 14.726 2.56976 15.4569C3.55954 19.3094 7.02643 21.9999 11.0006 21.9999C15.8049 21.9999 19.7136 18.0911 19.7136 13.2865C19.7136 10.9172 18.7753 8.70004 17.0716 7.04342ZM11.0006 20.7109C7.61506 20.7109 4.66161 18.4185 3.81834 15.1364C3.65768 14.5103 3.57617 13.8879 3.57617 13.2866C3.57617 12.1012 3.85341 10.9611 4.4001 9.89814C4.93639 8.85645 5.72461 7.94353 6.68011 7.25728C6.7449 7.21401 6.8048 7.17009 6.85808 7.13108C6.87866 7.11595 6.89933 7.10083 6.91854 7.08699C8.73865 5.78448 9.97224 3.85785 10.3984 1.69712C11.8652 2.70714 12.9317 4.22016 13.3794 5.96194C13.54 6.58778 13.6215 7.21014 13.6215 7.81166C13.6215 8.69243 13.4601 9.56878 13.1417 10.4163C13.0443 10.6754 13.1234 10.9678 13.338 11.1426C13.5527 11.3174 13.8549 11.3357 14.089 11.188C15.1525 10.5168 16.0563 9.62614 16.7397 8.58243C17.8316 9.90652 18.4245 11.5486 18.4245 13.2866C18.4245 17.3804 15.0941 20.7109 11.0006 20.7109Z" fill="#C5C5C5"/>
</g>
<defs>
<clipPath id="clip0_770_540">
<rect width="22" height="22" fill="white"/>
</clipPath>
</defs>
</svg>
