<svg width="22" height="22" viewBox="0 0 22 22" fill="none" xmlns="http://www.w3.org/2000/svg">
<path d="M16.3617 20.625H5.63672C3.36797 20.625 1.51172 18.7687 1.51172 16.5V16.3625L1.92422 5.3625C1.99297 3.09375 3.84922 1.375 6.04922 1.375H15.9492C18.1492 1.375 20.0055 3.09375 20.0742 5.3625L20.4867 16.3625C20.5555 17.4625 20.143 18.4937 19.3867 19.3188C18.6305 20.1438 17.5992 20.625 16.4992 20.625C16.4992 20.625 16.4305 20.625 16.3617 20.625ZM6.04922 2.75C4.53672 2.75 3.36797 3.91875 3.29922 5.3625L2.88672 16.5C2.88672 18.0125 4.12422 19.25 5.63672 19.25H16.4992C17.2555 19.25 17.943 18.9062 18.4242 18.3563C18.9055 17.8062 19.1805 17.1187 19.1805 16.3625L18.768 5.3625C18.6992 3.85 17.5305 2.75 16.018 2.75H6.04922Z" fill="white"/>
<path d="M11 9.625C8.31875 9.625 6.1875 7.49375 6.1875 4.8125C6.1875 4.4 6.4625 4.125 6.875 4.125C7.2875 4.125 7.5625 4.4 7.5625 4.8125C7.5625 6.7375 9.075 8.25 11 8.25C12.925 8.25 14.4375 6.7375 14.4375 4.8125C14.4375 4.4 14.7125 4.125 15.125 4.125C15.5375 4.125 15.8125 4.4 15.8125 4.8125C15.8125 7.49375 13.6813 9.625 11 9.625Z" fill="white"/>
</svg>
