<svg width="22" height="22" viewBox="0 0 22 22" fill="none" xmlns="http://www.w3.org/2000/svg">
<path d="M7.16661 3.93291C8.34435 3.95711 9.49152 4.49391 10.3138 5.91878C10.6194 6.44727 11.3821 6.44727 11.6888 5.91878C12.5114 4.49416 13.6586 3.95736 14.8361 3.93291C16.0138 3.90725 17.2194 4.46262 17.963 5.35631C19.3979 7.08283 19.5812 10.1 17.4805 12.2137L11.0012 17.7963L4.52099 12.2137C2.42146 10.1002 2.60357 7.08283 4.03968 5.35631C4.78328 4.46262 5.98888 3.90725 7.16661 3.93291ZM7.20083 2.34305C5.51784 2.30711 3.88446 3.05854 2.81746 4.3404C0.844058 6.71371 0.725502 10.6603 3.39924 13.3428C3.41341 13.3572 3.42857 13.3709 3.44397 13.3848L10.4832 19.4473C10.7812 19.7032 11.2217 19.7032 11.5194 19.4473L18.5599 13.3848C18.5753 13.3709 18.5893 13.3572 18.6034 13.3428C21.2772 10.66 21.1571 6.71371 19.184 4.3404C18.1185 3.05829 16.4836 2.30687 14.8016 2.34305C13.4063 2.37189 12.0606 3.14727 11.0012 4.41667C9.94203 3.14727 8.59637 2.37189 7.20083 2.34305Z" fill="#C5C5C5"/>
</svg>
