<svg width="26" height="26" viewBox="0 0 26 26" fill="none" xmlns="http://www.w3.org/2000/svg">
<path d="M25.8348 12.4942C25.6025 12.1765 20.0682 4.71423 12.9999 4.71423C5.93157 4.71423 0.397009 12.1765 0.164989 12.4939C-0.0549962 12.7954 -0.0549962 13.2042 0.164989 13.5057C0.397009 13.8234 5.93157 21.2857 12.9999 21.2857C20.0682 21.2857 25.6025 13.8233 25.8348 13.5059C26.055 13.2045 26.055 12.7954 25.8348 12.4942ZM12.9999 19.5714C7.79331 19.5714 3.28388 14.6185 1.94899 12.9994C3.28215 11.3788 7.78214 6.42851 12.9999 6.42851C18.2062 6.42851 22.7153 11.3805 24.0508 13.0005C22.7176 14.6211 18.2176 19.5714 12.9999 19.5714Z" fill="#C5C5C5"/>
<path d="M13.0003 7.85718C10.1646 7.85718 7.85742 10.1643 7.85742 13.0001C7.85742 15.8358 10.1646 18.1429 13.0003 18.1429C15.836 18.1429 18.1432 15.8358 18.1432 13.0001C18.1432 10.1643 15.836 7.85718 13.0003 7.85718ZM13.0003 16.4286C11.1097 16.4286 9.57175 14.8906 9.57175 13.0001C9.57175 11.1095 11.1098 9.5715 13.0003 9.5715C14.8908 9.5715 16.4289 11.1095 16.4289 13.0001C16.4289 14.8906 14.8909 16.4286 13.0003 16.4286Z" fill="#C5C5C5"/>
</svg>
