<svg width="16" height="16" viewBox="0 0 16 16" fill="none" xmlns="http://www.w3.org/2000/svg">
<path fill-rule="evenodd" clip-rule="evenodd" d="M12.6657 11.7242C12.926 11.9846 12.926 12.4067 12.6656 12.667C12.4052 12.9274 11.9831 12.9274 11.7228 12.667L7.99931 8.94285L4.27551 12.6666C4.01518 12.927 3.59304 12.927 3.33271 12.6666C3.07238 12.4063 3.07238 11.9842 3.33271 11.7238L7.05658 7.99998L3.33298 4.27573C3.07271 4.01535 3.07271 3.59325 3.33311 3.33292C3.59344 3.07259 4.01558 3.07263 4.27591 3.333L7.99944 7.05718L11.7233 3.33332C11.9836 3.07297 12.4057 3.07297 12.6661 3.33332C12.9264 3.59367 12.9264 4.01578 12.6661 4.27613L8.94211 8.00005L12.6657 11.7242Z" fill="white"/>
</svg>
