<svg width="11" height="11" viewBox="0 0 11 11" fill="none" xmlns="http://www.w3.org/2000/svg">
<g opacity="0.2">
<path fill-rule="evenodd" clip-rule="evenodd" d="M8.62485 7.99394C8.79918 8.16832 8.79916 8.45095 8.6248 8.62528C8.45044 8.79961 8.16778 8.79961 7.99345 8.62524L5.50004 6.1314L3.00643 8.62501C2.8321 8.79934 2.54942 8.79934 2.37509 8.62501C2.20076 8.45068 2.20076 8.168 2.37509 7.99367L4.86875 5.50001L2.37527 3.00609C2.20098 2.83174 2.20098 2.54908 2.37536 2.37475C2.54969 2.20042 2.83236 2.20045 3.0067 2.3748L5.50013 4.86867L7.99376 2.37502C8.1681 2.20068 8.45076 2.20068 8.6251 2.37502C8.79945 2.54936 8.79945 2.83202 8.6251 3.00637L6.13138 5.50006L8.62485 7.99394Z" fill="black"/>
</g>
</svg>
