<?xml version="1.0" encoding="UTF-8"?>
<svg version="1.1" viewBox="0 0 1048 840" xmlns="http://www.w3.org/2000/svg">
<path transform="translate(391,464)" d="m0 0h90l26 1 32 5 9 2 1 1 4 31 6 31 9 31 9 25 10 24 12 22 12 18 11 14 12 14 25 25 14 11 4 4-8 1h-484l-11-3-9-6-5-4-7-11-2-5v-24l4-27 6-24 8-21 10-21 11-18 10-13 12-14 11-11 11-9 13-10 18-11 25-12 21-7 22-5 23-3z" fill="#A6ACB9"/>
<path transform="translate(766,364)" d="m0 0h7l27 10 37 15 90 36 10 5 7 7 4 8 1 4v30l-4 29-6 27-8 27-10 25-10 20-13 21-8 11-10 13-15 16-14 12-16 12-21 13-19 10-19 8-8 1-14-5-23-11-20-12-17-12-11-9-10-9-12-12-13-17-14-21-12-22-9-20-10-30-6-24-5-30-2-23 1-19 5-12 8-7 18-8 108-43 33-13z" fill="currentColor"/>
<path transform="translate(421,84)" d="m0 0h17l21 3 17 4 21 8 18 10 14 10 13 12 9 9 12 16 9 16 7 15 6 19 4 24v29l-4 22-6 20-9 20-12 18-9 11-14 14-17 13-16 9-15 7-19 6-24 5h-24l-27-5-14-4-13-5-14-7-18-12-13-11-12-12-14-19-11-20-7-19-5-22-2-20 1-21 5-25 6-18 8-16 7-12 9-12 11-12 9-9 17-13 16-9 13-6 18-6 21-4z" fill="#A6ACB9"/>
<path transform="translate(770,426)" d="m0 0 17 6 100 40 3 2-1 13-4 24-7 25-8 21-10 21-11 18-11 13-7 8-15 15-20 15-21 13-5 2-1-1v-234z" fill="#FCFCFC"/>
</svg>
