<?xml version="1.0" encoding="UTF-8"?>
<svg version="1.1" viewBox="0 0 2048 1620" xmlns="http://www.w3.org/2000/svg">
<path transform="translate(1312,453)" d="m0 0h426l21 3 20 5 21 9 15 9 11 9 9 9 10 14 9 16 9 25 3 16 1 14v37l-1 97v463l1 100v88l-2 20-4 18-5 15-8 15-10 14-12 13-10 8-13 8-16 8-22 7-26 4-27 1h-399l-20-2-22-5-21-7-19-10-16-12-12-12-10-14-8-16-8-24-3-18-1-24 1-782 3-17 6-20 8-17 9-14 11-12 8-8 10-7 15-9 17-7 25-6 7-1z" fill="currentColor"/>
<path transform="translate(473,106)" d="m0 0h886l20 3 21 6 15 6 21 11 17 12 13 12 8 8 11 14 10 15 9 17 7 19 4 17 2 22 1 35 1 62-170 1-1-3v-83h-857l-18 1-1 15-1 60v419l1 113 9 1h301l294 1 5 1v258l-108 1h-608l-30-1-27-3-24-5-30-10-16-8-16-9-13-10-13-11-17-17-13-17-11-18-8-16-8-19-7-23-4-23-1-17 3-16 5-12 7-9 9-8 14-7 5-1 18-1 114-1v-90l1-132 1-399 2-24 4-18 9-21 9-15 10-14 11-13 13-13 14-11 15-10 16-8 15-6 15-4 19-3z" fill="#A7ADBA"/>
<path transform="translate(1416,627)" d="m0 0h247l35 1 1 65v594l-1 35-1 1-14 1h-340l-1-2v-687l2-7z" fill="#A7ADBA"/>
<path transform="translate(1863,615)" d="m0 0h3v720l-2-1-1-14v-4l-1-10-1-19-1-40-1-39v-12l-2-22-2-11-2-16v-10l-1-11-1-24-1-67-1-57v-39l1-96v-26l1-24 1-9 1-26 4-17 2-21 1-37 1-33v-13z" fill="currentColor"/>
<path transform="translate(1175,633)" d="m0 0 3 3v9l2 30v10l1 7-1 3v6l1 3v14l1 36 2 13v7l1 2 1 17v9l-1 5-1 13v89l1 44v50l1 36v110l-1 8v34l-1 11v2 30l-1 4h-2v10l-1 4v10l-1 4 1 11-1 4-1 8v8l-2 9h-1z" fill="currentColor"/>
<path transform="translate(1340,665)" d="m0 0h1l1 11v645l-3-3-1-11-1-26v-39l-1-19 1-5-1-7 1-14-1-13-1-23v-13l1-25-1-36v-139l1-14v-16l-1-11v-37l1-11-1-22 1-39v-49l1-19v-38l2-16z" fill="currentColor"/>
<path transform="translate(1312,453)" d="m0 0h426l21 3 2 1-1 2h-6v-2l-3 1-36 1-26 1h-10l-19 1-16 1h-11l-22 1-17 1-48-1h-34l-53-1h-20l-35-1-56-1-17-1h-40l-11 1-6-1 2-2 17-3z" fill="currentColor"/>
<path transform="translate(1699,651)" d="m0 0 3 1 1 14 1 13v111l1 45v96l-1 62v29l-1 30v39l1 18v169l-1 22-3 18h-1z" fill="currentColor"/>
<path transform="translate(1683,1323)" d="m0 0h16l-1 2-15 2-8 1-82 1-53-1-47-1h-56l-37 1h-52l-6-2v-2z" fill="currentColor"/>
<path transform="translate(1650,625)" d="m0 0 49 1 1 1v24l-1 42h-1v-65h-35l-13-1z" fill="currentColor"/>
</svg>
