<?xml version="1.0" encoding="UTF-8"?>
<svg version="1.1" viewBox="0 0 1927 2048" xmlns="http://www.w3.org/2000/svg">
<path transform="translate(0)" d="m0 0h1927v2048h-1927z" fill="#A6ACB7"/>
<path transform="translate(0)" d="m0 0h1927v2048h-1927zm703 176-19 3-19 5-19 7-20 10-18 12-11 9-11 10-7 8-14 19-9 15-8 15-8 21-8 29-3 7-27 11-16 8-14 8-17 12-13 11-10 9-12 12-13 17-12 20-8 15-9 23-7 27-3 20-1 13v24l3 21 4 14v4l-33 13-23 12-17 11-16 12-11 10-8 7-12 13-9 12-12 19-8 14-8 19-6 18-5 22-3 22v30l3 21 7 26 10 25 8 16 9 15 8 11 3 5-21 12-19 13-14 11-11 10-8 7-13 13-11 14-11 15-12 19-12 22-10 23-6 19-6 27-3 23-1 15v15l2 23 4 23 7 25 7 20 11 24 12 20 13 18 11 13 23 23 11 9 16 12 20 13 41 24-1 6-6 18-5 23-1 8v25l3 23 6 25 8 22 10 21 12 20 13 17 9 10 15 15 17 13 20 13 19 10 23 9 26 7 21 4 9 1h24l24-4 7-2 5 1 4 9 8 27 8 20 8 16 11 18 13 16 14 14 17 13 18 11 16 8 20 8 23 6 17 3 10 1h13l25-4 25-7 21-8 16-8 14-8 14-10 15-14 7-7 11-14 10-16 8-16 7-18 6-21 5-24 3-19 102 1 4 1 2 8 4 25 5 20 6 18 12 25 12 19 9 11 15 15 16 12 18 11 16 8 17 7 25 7 20 4 18 2h11l20-3 25-7 16-6 16-8 16-9 12-9 14-12 7-7 7-8 13-17 8-13 11-23 7-19 7-26 2-4 8 1 13 3 26 3h9l22-3 26-6 21-7 18-8 21-11 15-10 10-8 10-9 16-16 11-14 12-17 13-25 9-25 6-22 5-25 1-11v-11l-3-23-9-31-1-9 26-14 22-13 15-11 14-11 11-10 8-7 8-8 7-8 11-13 13-18 11-19 8-17 9-25 7-26 6-31 1-9v-25l-3-26-5-26-7-25-8-20-8-17-10-17-14-21-10-13-13-15-15-15-11-9-16-12-20-12-17-9-1-4 7-8 12-19 12-25 9-27 7-31 1-6v-31l-4-27-6-23-10-27-11-21-8-12-9-12-9-11-19-19-14-11-17-11-26-14-26-11-10-4h-2l2-13 4-14 1-7v-32l-3-24-5-23-9-27-12-25-11-17-9-12-12-14-10-10-11-9-12-9-16-10-24-13-25-11-5-4-11-38-10-23-11-19-12-17-12-14-8-8-17-13-14-9-21-11-20-7-25-6-14-2h-31l-24 4-25 7-21 9-19 10-17 12-11 10-5 4-7 8-13 18-9 15-8 16-6 15-7 25-7 40-105-1-10-45-6-20-8-20-11-20-11-16-12-14-9-9-13-10-18-11-16-8-14-6-19-6-23-5-15-2z" fill="#FEFEFE"/>
<path transform="translate(1201,176)" d="m0 0h31l24 4 21 6 16 6 21 11 12 8 13 10 12 11 10 11 12 17 9 15 8 16 8 20 9 32 7 5 25 11 26 14 19 13 11 9 13 12 12 13 14 19 11 19 10 21 8 25 5 23 3 24v32l-3 15-4 16v3l9 3 20 8 19 9 18 10 12 8 13 10 12 11 14 14 13 17 11 17 10 19 10 27 6 23 4 27v31l-6 29-6 21-8 21-10 20-14 21-4 4 1 4 26 14 15 10 13 10 14 12 15 15 9 11 13 17 14 22 12 22 8 19 7 21 6 26 4 27 1 11v25l-3 21-7 31-9 29-10 23-8 15-8 12-12 16-9 11-16 17-14 13-14 11-15 11-14 9-27 15-11 6 1 9 9 31 3 23v11l-2 17-7 31-10 30-12 25-10 15-9 12-11 13-19 19-17 13-15 9-23 12-23 9-26 7-23 4-9 1-21-1-20-3-11-3h-4l-4 11-7 25-8 20-10 20-12 17-9 11-14 15-14 12-15 10-20 11-20 8-24 7-16 3-8 1h-11l-24-3-26-6-21-7-20-9-17-10-14-10-11-9-15-15-12-17-10-18-8-17-7-21-6-28-3-20-1-2-5-2 3-1-1-2v-237l1-4h127l5 8 9 17 12 18 11 13 10 10 19 14 15 9 17 7 41 10 6 1h8l20-4 17-4 16-5 16-7 16-9 12-9 13-11 10-11 12-17 12-23 6-19 5-22 2-14v-20l-3-17-6-23-6-15-9-17-11-16-9-10-12-12-16-11-16-9-19-8-21-6-21-4-8-1h-9l-32 6-20 6-21 10-15 10-14 11-9 9-11 15-15 24-8 16h-125l-2-1v-651l2-5h189l6 2 10 7 8 8 8 14 4 11 3 16-1 4-5 4-23 13-16 11-13 10-12 11-8 10-11 17-8 15-8 22-5 22-2 14v16l4 20 4 15 5 15 11 23 12 18 11 13 11 10 15 11 17 10 20 8 27 7 18 4h9l33-7 19-6 16-7 16-9 13-10 14-12 9-11 11-15 10-18 9-27 5-24 1-8v-21l-5-26-8-24-8-16-10-15-8-10-12-13-16-13-16-10-24-13-2-2-1-18-4-25-7-24-6-15-11-19-10-13-11-12-12-10-17-11-21-10-18-6-24-6-16-3-22-1h-142l-7-1-1-19v-46l1-148v-31h3l7-40 7-25 8-20 11-20 14-20 9-10 4-5 8-7 13-10 18-11 23-11 21-7 22-5z" fill="#A6ACB7"/>
<path transform="translate(918,369)" d="m0 0h101l1 1v30l-1 148v65h149l22 1 29 6 24 7 20 9 11 6 13 9 13 11 7 7 11 14 9 15 8 16 8 26 4 22 1 7 1 18 19 11 11 6 12 8 16 13 8 8 9 11 10 14 9 16 7 19 5 19 3 17v21l-3 18-5 21-7 20-12 21-9 12-12 14-14 12-13 9-16 9-14 6-19 6-33 7h-9l-31-7-20-6-16-7-18-11-14-11-10-9-8-9-10-14-9-16-8-17-6-19-5-22-1-7v-16l4-24 6-21 8-19 8-14 11-16 12-13 13-11 24-16 23-13 3-3-2-15-4-13-7-13-9-10-11-8-5-1h-189l-1 4-1 651h127l8-17 14-22 9-12 9-10 10-9 16-11 14-8 13-6 20-6 32-6h9l25 4 22 6 15 6 16 8 15 9 11 9 17 17 11 16 9 16 7 16 6 21 3 14 1 8v20l-3 19-5 21-6 17-11 21-10 14-12 14-11 10-15 11-16 9-16 7-19 6-27 6-7 1h-8l-31-7-19-5-15-7-14-8-16-12-10-9-8-8-10-13-11-18-11-20h-123l-4-1v243h-102v-627l-16 1-172 1-8 2-10 7-3 3h-2l-2 4-5 6-6 14-2 12-1 96v29l16 8 15 8 12 8 10 8 10 9 7 7 10 13 13 21 8 20 6 23 3 19v17l-3 19-6 24-6 16-9 17-12 17-12 14-15 13-15 10-19 10-17 6-36 9-7 1h-9l-27-6-24-7-23-11-16-11-14-11-9-9-10-13-12-20-8-17-8-26-4-20v-26l3-18 6-22 9-21 13-21 9-11 12-12 13-10 21-14 21-11h2v-95l1-37 3-19 5-19 7-19 9-17 11-16 9-10 10-10 19-14 18-10 21-8 31-7 13-2 13-1 146-1 13-1v-271h-124l-4 5-7 13-12 17-9 11-11 12-8 8-14 11-11 7-17 9-16 5-25 6-12 3h-16l-40-10-24-10-15-9-16-12-10-9-10-11-9-13-11-19-7-17-7-25-3-15v-26l4-22 6-21 8-19 12-20 10-13 13-13 16-12 19-11 16-7 21-6 27-5h16l23 4 22 6 21 9 18 11 14 11 11 11 12 16 11 17 10 17 3 4 3 1h79l33-1 10-1v-163l-1-78z" fill="currentColor"/>
<path transform="translate(1284,887)" d="m0 0h25l14 4 12 7 10 11 6 12 2 7 1 11-2 18-4 11-6 9-6 7-11 7-11 4-12 2h-13l-16-4-10-5-8-7-8-11-5-14-1-5v-21l4-12 6-10 9-10 14-8z" fill="#FBFBFC"/>
<path transform="translate(626,1380)" d="m0 0h27l13 4 11 6 8 8 7 11 4 11 1 5v15l-3 14-6 12-9 11-13 8-10 3-12 2h-10l-15-3-14-7-11-11-7-14-3-12v-19l4-13 6-10 9-10 14-8z" fill="#FBFBFC"/>
<path transform="translate(629,613)" d="m0 0h20l14 3 13 7 11 11 8 16 2 8v16l-3 14-6 11-9 10-9 7-8 4-14 3h-18l-15-4-10-6-7-6-7-10-4-8-3-13v-18l3-11 7-13 11-11 10-6 8-3z" fill="#FBFBFC"/>
<path transform="translate(1283,1380)" d="m0 0h26l11 3 12 6 9 8 7 10 4 10 1 4v23l-3 12-5 10-9 10-8 6-10 5-18 3h-9l-15-3-14-7-11-11-7-14-3-12v-19l4-13 6-10 9-10 11-7z" fill="#FBFBFC"/>
</svg>
