<?xml version="1.0" encoding="UTF-8"?>
<svg version="1.1" viewBox="0 0 800 816"  xmlns="http://www.w3.org/2000/svg">
<path transform="translate(381,468)" d="m0 0h57l8 3 7 8 2 5v8l-4 9-15 25-6 9 1 9 20 75 12 44 6 23 2 1 13-55 24-97 7-28 4-8 8-5 6-1 19 5 20 8 23 12 17 12 13 11 17 17 12 16 8 13 10 19 8 21 5 18 4 24 1 9v18l-4 11-6 8-9 8-9 4-7 1h-492l-10-3-10-7-8-9-4-8-1-4v-24l5-30 7-23 9-21 9-16 11-16 11-13 8-9 8-7 12-10 18-12 21-11 21-8 12-3h9l8 4 5 7 6 21 27 111 12 49v2l2-1 11-43 14-52 14-53-1-5-10-18-8-13-5-10-1-10 4-8 8-6z" fill="currentColor"/>
<path transform="translate(397,88)" d="m0 0h25l21 3 21 6 18 8 11 6 14 10 11 9 15 15 11 15 9 16 7 16 5 16 3 14 2 15v26l-4 22-6 20-8 18-10 16-7 9-9 10-11 11-17 13-16 9-17 8-21 6-14 3-10 1h-15l-18-2-25-6-18-7-19-10-14-10-15-14-8-8-9-12-10-15-9-19-5-15-4-18-2-17v-16l3-22 5-19 5-13 8-16 10-16 12-14 15-15 16-12 18-10 20-8 21-5z" fill="#D3D3D3"/>
</svg>
