<?xml version="1.0" encoding="UTF-8"?>
<svg version="1.1" viewBox="0 0 2048 2037"   xmlns="http://www.w3.org/2000/svg">
<path transform="translate(1013,185)" d="m0 0h18l18 4 21 8 23 12 24 14 175 100 23 13 21 12 19 11 23 13 24 14 25 14 24 14 18 10 24 14 25 14 24 14 18 10 24 14 25 14 24 14 27 15 24 14 18 10 77 44 18 11 12 9 10 9 7 8 9 14 6 14 4 14 1 6v22l-4 19-8 19-9 14-11 13-9 8-15 9-14 6-23 5-20 2-37 1-59 1v557l1 124 1 49 5 5 23 15 22 14 25 16 43 29 12 8 23 16 13 10 10 9 8 8 10 15 8 17 4 15 1 7v20l-4 16-5 12-6 11-9 12-9 10-8 8-10 7-15 8-17 5-11 2-13 1-87 1h-1308l-39-1-21-3-13-4-17-8-12-9-10-9-10-11-9-14-6-12-4-14-1-5v-25l3-15 5-15 7-13 7-9 7-8 8-7 15-12 19-13 14-10 38-25 37-24 25-16 16-11 4-3 1-109 1-184v-219l-1-220-90-1-24-2-18-4-16-6-13-7-10-8-8-7-10-13-8-14-6-15-4-20v-14l3-19 6-18 9-16 11-12 11-10 17-11 15-9 24-14 25-14 24-14 18-10 24-14 20-11 24-14 25-14 21-12 26-15 16-9 21-12 26-15 23-13 105-60 26-15 25-14 21-12 26-15 23-13 26-15 56-32 26-15 21-12 22-12 21-10 20-6z" fill="#A5AAB7"/>
<path transform="translate(1013,185)" d="m0 0h18l18 4 21 8 23 12 24 14 175 100 23 13 21 12 19 11 23 13 24 14 25 14 24 14 18 10 24 14 25 14 24 14 18 10 24 14 25 14 24 14 27 15 24 14 18 10 77 44 18 11 12 9 10 9 7 8 9 14 6 14 4 14 1 6v22l-4 19-8 19-9 14-11 13-9 8-15 9-14 6-23 5-20 2-37 1-59 1v2h-2v-2h-193l-1 31h-1l-1-32h-115l-24 1-38-1h-43l-109 1-1 2h-3l-1-4-147 1-17 1-44-1h-148l-2 4-2-1v-3h-105l-32 1-2 2-3-2h-190l-3 2-2-3-90-1-24-2-18-4-16-6-13-7-10-8-8-7-10-13-8-14-6-15-4-20v-14l3-19 6-18 9-16 11-12 11-10 17-11 15-9 24-14 25-14 24-14 18-10 24-14 20-11 24-14 25-14 21-12 26-15 16-9 21-12 26-15 23-13 105-60 26-15 25-14 21-12 26-15 23-13 26-15 56-32 26-15 21-12 22-12 21-10 20-6z" fill="currentColor"/>
<path transform="translate(958,803)" d="m0 0h147l-1 492-1 228-58 1h-100l-1-1-1-33-1-554v-131l1-1z" fill="#FDFDFD"/>
<path transform="translate(640,803)" d="m0 0h102l3 1-1 247v194l-1 278-63 1h-70l-2-7-1-115v-597l1-1z" fill="#FDFDFD"/>
<path transform="translate(1324,803)" d="m0 0h108l7 1v490l-1 228-1 1-62 1h-70l-1-1-1-69-1-528v-120l1-2z" fill="#FDFDFD"/>
</svg>
