<?xml version="1.0" encoding="UTF-8"?>
<svg version="1.1" viewBox="0 0 1128 856" xmlns="http://www.w3.org/2000/svg">
<path transform="translate(280,88)" d="m0 0h485l15 2 11 4 9 5 8 7 13 17 23 35 10 15 29 43 23 35 8 14 3 8 1 5v9l-3 10-5 9-9 10-8 6-11 5h-7l-11-10-15-10-21-10-21-6-14-2h-32l-20 4-18 6-21 11-13 10-8 7-4 1h-518l-13-4-9-6-7-6-7-10-4-10-1-5v-9l4-13 8-15 7-10 16-24 7-10 58-87 10-13 8-7 10-6 9-3 6-1z" fill="currentColor"/>
<path transform="translate(564,368)" d="m0 0h13l20 1v301l-2 15-5 12-10 13-10 8-15 7-15 3h-283l-16-3-16-8-9-7-7-8-8-16-2-14v-303h77l1 199h242v-199z" fill="currentColor"/>
<path transform="translate(777,328)" d="m0 0 19 2 15 4 12 5 14 8 11 9 8 9 8 13 6 12 4 13 3 18 1 66 17 5 10 6 7 9 4 10 1 5v166l-1 11-4 10-9 10-8 5-9 3-8 1h-199l-12-2-11-5-8-6-6-10-2-5-1-6v-172l3-12 7-10 8-6 9-4 7-2h5l1-69 4-20 6-16 8-14 9-11 10-9 14-9 14-6 16-4z" fill="#1E3152"/>
<path transform="translate(774,387)" d="m0 0h8l11 2 11 6 8 8 5 10 2 7v67l-1 1-46 1h-30l-5-1v-69l4-11 6-8 8-7 8-4z" fill="#FAFBFB"/>
</svg>
