<?xml version="1.0" encoding="UTF-8"?>
<svg version="1.1" viewBox="0 0 824 820"  xmlns="http://www.w3.org/2000/svg">
<path transform="translate(460,200)" d="m0 0 4 2 139 139-318 318-12 9-16 8-62 18-52 15-21 6-9 1-9-3-6-4-7-8-4-10v-10l7-26 14-48 17-59 5-12 5-9 8-10z" fill="currentColor"/>
<path transform="translate(597,406)" d="m0 0 7 6 48 48-2 4-79 79-5 8v8l4 8 7 6 4 2h10l10-6 78-78 3-1 23 23 10 14 6 13 2 9v14l-4 14-6 11-8 10-11 12-81 81-11 9-11 7-9 4-9 2h-12l-10-2-10-4-13-9-12-11-86-86-6-5-8-8 2-4 13-12 15-16 11-11 8-7z" fill="#A6ADBA"/>
<path transform="translate(238,79)" d="m0 0h13l16 4 13 7 14 12 18 18-2 4-79 79-5 8v8l5 10 7 5 3 1h11l9-6 74-74 7-5 52 52 2 1-1 4-8 7-172 172-110-110-9-13-5-11-2-10v-11l3-14 7-14 11-13 28-28 8-7 35-35 5-6 12-12 8-7 12-9 11-5z" fill="#A6ADBA"/>
<path transform="translate(605,78)" d="m0 0h21l14 3 12 5 10 6 11 9 30 30 10 14 7 15 3 11 1 8v14l-3 16-5 13-9 14-14 15-60 60-5-1-136-136v-2l-3-1 73-73 14-10 15-7z" fill="currentColor"/>
</svg>
