<?xml version="1.0" encoding="UTF-8"?>
<svg version="1.1" viewBox="0 0 2048 1563" xmlns="http://www.w3.org/2000/svg">
<path transform="translate(438,953)" d="m0 0h1121l22 2 23 4 25 7 25 10 19 10 15 10 13 10 14 12 12 12 9 11 10 13 12 20 12 25 10 30 6 27 3 24v26l-4 24-7 28-6 18-11 25-10 17-10 14-8 10-11 12-13 13-11 9-15 11-15 9-16 8-19 8-26 8-25 5-29 3-59 1h-996l-57-1-29-3-29-6-24-7-23-10-12-7-11-6-17-12-11-9-12-11-9-9-11-14-11-15-12-21-8-17-7-19-6-22-4-21-2-21v-13l2-22 5-27 6-21 6-16 12-25 11-18 9-12 11-13 20-20 11-9 18-13 19-11 17-8 24-8 23-5 23-3z" fill="#A8ADB8"/>
<path transform="translate(433,159)" d="m0 0h492l17 4 12 5 10 6 10 9 6 7 8 14 4 11 2 10v498l-3 17-6 14-8 11-4 5-11 9-10 6-13 5-17 3-17 1h-460l-17-2-14-4-14-6-14-10-7-7-9-14-5-13-2-10-1-11v-70l1-425 4-15 6-12 6-8 6-7 14-10 14-7 11-3z" fill="currentColor"/>
<path transform="translate(1508,317)" d="m0 0h38l16 1 16 4 12 5 11 7 8 7 9 12 8 17 3 15v339l-3 16-6 14-8 11-4 5-11 9-11 6-9 4-20 4-19 1h-301l-15-2-15-4-16-8-11-8-8-8-8-13-6-16-2-13v-334l2-13 5-14 7-12 9-10 10-8 14-8 13-4 8-1z" fill="currentColor"/>
<path transform="translate(1457,1110)" d="m0 0h30l16 4 16 8 8 6 8 7 8 11 7 14 3 11 1 8v18l-3 17-5 12-6 11-8 10-9 8-13 8-14 5-10 2-10 1h-12l-18-4-13-5-11-6-11-10-9-13-6-13-4-14-1-7v-20l2-12 5-13 7-12 12-13 14-10 13-6z" fill="#FDFDFD"/>
<path transform="translate(981,1110)" d="m0 0h29l14 3 14 6 12 8 9 8 9 13 7 16 2 10 1 16-2 17-4 13-8 16-8 10-7 7-15 10-14 5-10 2-10 1h-11l-16-3-19-7-13-9-7-7-9-13-5-11-4-14-1-5v-26l4-16 7-14 7-9 11-11 13-8 11-5z" fill="#FDFDFD"/>
<path transform="translate(504,1110)" d="m0 0h30l14 3 19 9 10 8 9 9 8 13 5 13 2 11v23l-3 15-5 12-6 11-8 10-10 9-14 8-16 5-17 2h-9l-16-3-12-4-14-7-12-11-8-10-7-15-5-19-1-17 2-16 4-12 7-13 11-12 9-8 13-8 14-5z" fill="#FDFDFD"/>
</svg>
