<?xml version="1.0" encoding="UTF-8"?>
<svg version="1.1" viewBox="0 0 916 852" xmlns="http://www.w3.org/2000/svg">
<path transform="translate(226,104)" d="m0 0h456l12 4 10 9 56 88 11 17 9 15 6 12 5 15 2 8 1 13-1 18-5 19-8 16-7 10-11 12-11 8-16 8-5 1v2l3 1v56l-1 237-2 13-4 11-9 14-11 12-12 9-15 7-16 4-9 1h-397l-17-2-14-4-15-8-9-7-10-10-9-14-5-12-2-9-1-12v-287l1-1-16-8-11-7-10-9-9-12-9-17-6-20-1-7v-16l2-15 5-16 8-17 16-25 11-17 12-19 16-25 14-22 7-10 9-8 7-3z" fill="#A6ACB9"/>
<path transform="translate(226,104)" d="m0 0h456l12 4 10 9 56 88 11 17 9 15 6 12 5 15 2 8 1 13-1 18-5 19-8 16-7 10-11 12-11 8-16 8-16 5-20 4-21-3-22-6-15-8-14-10-8-8-3-1-8 7-10 8-14 8-11 5-13 4-18 3h-13l-22-4-15-5-15-8-11-8-11-10-4 2-14 12-15 9-14 6-16 4-12 2h-14l-23-4-19-7-14-8-10-8-9-8-4 2-10 9-15 10-13 6-17 5-22 4-10-1-17-4-14-5-16-9-14-12-9-12-9-17-6-20-1-7v-16l2-15 5-16 8-17 16-25 11-17 12-19 16-25 14-22 7-10 9-8 7-3z" fill="currentColor"/>
<path transform="translate(289,348)" d="m0 0 4 2 10 9 14 9 14 7 17 5 18 3h14l21-4 17-6 16-9 11-9 8-7 4 2 11 10 16 10 16 7 16 4 13 2h13l22-4 16-6 15-8 12-9 7-7 3-1 8 7 11 9 12 7 8 4-1 209-1 1h-400l-2-1v-210l15-8 12-9z" fill="#FEFEFD"/>
</svg>
