<?xml version="1.0" encoding="UTF-8"?>
<svg version="1.1" viewBox="0 0 2037 2048" xmlns="http://www.w3.org/2000/svg">
<path transform="translate(334,526)" d="m0 0h14l26 3 25 5 20 6 24 10 19 10 17 11 12 9 14 12 13 13 9 11 11 14 14 20 19 29 18 27 10 16 10 15 13 20 22 34 30 45 9 12v2h2v2l6 2h151l9 37 17 70 16 65 11 41 1 6-38 1h-147l-48-1-25-3-15-3-23-7-23-11-17-12-11-9-14-14-13-17-10-14-7-11-8-12-7-10-11-17-7-9-5-5-3-1-1 33v183l7 11 170 170 9 11 9 12 9 15 9 21 6 22 9 52 14 79 8 46 13 75 9 49 2 14 1 22-2 15-6 21-9 19-9 12-15 15-17 11-15 7-16 5-5 1h-21l-20-4-19-7-13-7-11-8-12-11-10-13-9-17-6-19-3-13-9-54-7-45-9-54-12-78-4-20-3-26-4-11-6-8-2-1v-2l-3-1-7-8-262-262-9-11-11-15-9-15-8-16-7-19-7-28-2-12-1-21v-201l1-123 6-31 6-20 8-20 9-17 12-18 13-15 13-13 13-10 19-12 16-8 15-6 21-6 25-5z" fill="currentColor"/>
<path transform="translate(890,665)" d="m0 0h27l12 3 16 8 11 9 8 9 9 15 8 21 10 36 38 152 18 70 20 79 16 64 20 79 18 71 23 91 7 25 3 6 15 5 21 6 16 6 25 12 22 14 13 10 10 9 9 9 6 5 7 8 4 2 13-2 30-7 208-51 151-37 41-10 28-5h22l12 3 14 7 12 11 9 10 8 14 5 12 4 15 1 7v11l-4 15-8 16-9 11-11 9-12 7-23 9-31 9-80 20-66 17-215 54-44 12-17 6-3 5-6 27-8 21-11 22-12 18-8 10-12 14-11 11-11 9-15 11-15 9-17 9-25 10-30 8-22 4h-18l-26-4-27-7-22-8-16-8-14-8-12-8-12-9-10-9-8-7-13-14-12-16-12-20-11-23-7-19-6-23-3-19v-35l4-25 5-20 8-22 9-19 12-20 12-16 9-10 7-8 22-22-1-9-8-29-30-122-16-64-15-58-14-56-9-27-2-3-1 1h-39v-1h38l-8-28-19-75-19-79-8-34 1-3 1 1v-7l-6-28-9-36-6-31v-25l4-13 9-16 11-12 9-8 14-8 14-5z" fill="#A8AEB9"/>
<path transform="translate(1567,769)" d="m0 0h16l21 5 19 9 13 10 10 10 11 16 9 19 7 22 12 46 19 78 16 64 25 98 7 31 2 12v22l-5 19-10 19-12 14-10 9-18 11-19 8-26 8-55 14-131 33-105 26-29 6h-18l-18-5-16-8-14-9-12-11-9-12-10-19-10-30-21-83-16-64-19-77-16-64-6-29-2-13v-10l4-21 6-16 6-11 10-13 10-9 14-9 17-8 30-9 64-16 82-20 80-20 54-14 31-7z" fill="#A8AEB9"/>
<path transform="translate(138,1280)" d="m0 0 5 3 9 9 7 8 33 33 8 7 9 9 7 8 137 137 1 4v240l-2 15-4 15-7 16-7 11-9 11-11 10-18 11-17 7-21 5h-22l-19-4-14-5-14-7-14-10-14-14-10-15-6-14-4-13-2-10-1-21z" fill="currentColor"/>
<path transform="translate(407,88)" d="m0 0h9l21 3 21 5 21 8 19 10 16 12 12 11 10 10 12 17 9 16 7 17 5 17 3 14 1 11v28l-3 18-6 22-8 19-8 14-11 14-11 12-12 11-17 12-23 12-27 9-20 4-7 1h-18l-19-3-23-6-20-8-18-10-16-12-12-11-10-10-10-13-10-17-10-26-5-21-1-6v-32l2-16 6-24 6-17 10-19 8-11 9-10 16-16 10-8 18-11 17-8 15-5 23-5z" fill="currentColor"/>
<path transform="translate(1111,1566)" d="m0 0h23l12 3 11 6 10 9 9 14 3 11v14l-2 12-5 12-8 11-9 9-12 6-15 3h-11l-14-3-12-5-8-6-9-11-6-13-3-14v-9l3-12 6-12 11-12 10-7 12-5z" fill="#FEFEFE"/>
<path transform="translate(464,918)" d="m0 0 3 1h-2l2 15v52l-1 54-1 87-1 9-2-4v-181l1-29z" fill="#A8AEB9"/>
<path transform="translate(144,678)" d="m0 0h1l-1 9-4 22-1 123v201l1 21 5 25 1 8-2-3-5-22-2-14-1-22v-39l1-268 2-18z" fill="#A8AEB9"/>
<path transform="translate(469,1448)" d="m0 0 4 4 4 11 3 26 5 27 9 58 2 13 6 38 7 40 6 39 6 36v6h-1l-8-44-12-74-14-86-9-52-3-27-3-10z" fill="#A8AEB9"/>
</svg>
